RedHatDisplay-BoldItalic.ufo
<glyph name="dollar" format="2">
  <advance width="589"/>
  <unicode hex="0024"/>
  <outline>
    <contour>
      <point x="182" y="-75" type="line"/>
      <point x="247" y="-75" type="line"/>
      <point x="266" y="15" type="line"/>
      <point x="273" y="15" type="line" smooth="yes"/>
      <point x="445" y="15"/>
      <point x="556" y="103"/>
      <point x="556" y="237" type="curve" smooth="yes"/>
      <point x="556" y="320"/>
      <point x="502" y="375"/>
      <point x="391" y="403" type="curve" smooth="yes"/>
      <point x="351" y="413" type="line"/>
      <point x="383" y="566" type="line"/>
      <point x="436" y="553"/>
      <point x="483" y="525"/>
      <point x="528" y="483" type="curve"/>
      <point x="612" y="577" type="line"/>
      <point x="559" y="629"/>
      <point x="486" y="665"/>
      <point x="407" y="680" type="curve"/>
      <point x="424" y="759" type="line"/>
      <point x="359" y="759" type="line"/>
      <point x="344" y="687" type="line"/>
      <point x="327" y="687" type="line" smooth="yes"/>
      <point x="165" y="687"/>
      <point x="63" y="607"/>
      <point x="63" y="479" type="curve" smooth="yes"/>
      <point x="63" y="397"/>
      <point x="112" y="341"/>
      <point x="204" y="317" type="curve" smooth="yes"/>
      <point x="262" y="302" type="line"/>
      <point x="227" y="135" type="line"/>
      <point x="169" y="149"/>
      <point x="116" y="183"/>
      <point x="66" y="238" type="curve"/>
      <point x="-22" y="146" type="line"/>
      <point x="37" y="78"/>
      <point x="115" y="35"/>
      <point x="202" y="21" type="curve"/>
    </contour>
    <contour>
      <point x="270" y="426" type="line" smooth="yes"/>
      <point x="215" y="440"/>
      <point x="191" y="462"/>
      <point x="191" y="495" type="curve" smooth="yes"/>
      <point x="191" y="543"/>
      <point x="238" y="574"/>
      <point x="311" y="574" type="curve" smooth="yes"/>
      <point x="320" y="574" type="line"/>
      <point x="287" y="422" type="line"/>
    </contour>
    <contour>
      <point x="331" y="290" type="line" smooth="yes"/>
      <point x="399" y="271"/>
      <point x="424" y="251"/>
      <point x="424" y="214" type="curve" smooth="yes"/>
      <point x="424" y="163"/>
      <point x="372" y="129"/>
      <point x="290" y="128" type="curve"/>
      <point x="325" y="292" type="line"/>
    </contour>
  </outline>
</glyph>
<glyph name="ampersand" format="2">
  <advance width="670"/>
  <unicode hex="0026"/>
  <outline>
    <contour>
      <point x="619" y="81" type="line"/>
      <point x="594" y="100"/>
      <point x="568" y="123"/>
      <point x="542" y="147" type="curve"/>
      <point x="585" y="198"/>
      <point x="623" y="262"/>
      <point x="658" y="344" type="curve"/>
      <point x="547" y="373" type="line"/>
      <point x="522" y="314"/>
      <point x="495" y="265"/>
      <point x="465" y="226" type="curve"/>
      <point x="424" y="270"/>
      <point x="386" y="317"/>
      <point x="356" y="360" type="curve"/>
      <point x="412" y="388" type="line" smooth="yes"/>
      <point x="500" y="431"/>
      <point x="544" y="491"/>
      <point x="544" y="564" type="curve" smooth="yes"/>
      <point x="544" y="649"/>
      <point x="473" y="709"/>
      <point x="371" y="709" type="curve"/>
      <point x="247" y="709"/>
      <point x="160" y="626"/>
      <point x="160" y="509" type="curve" smooth="yes"/>
      <point x="160" y="469"/>
      <point x="169" y="432"/>
      <point x="190" y="390" type="curve"/>
      <point x="69" y="335"/>
      <point x="14" y="268"/>
      <point x="14" y="172" type="curve" smooth="yes"/>
      <point x="14" y="61"/>
      <point x="105" y="-10"/>
      <point x="246" y="-10" type="curve" smooth="yes"/>
      <point x="320" y="-10"/>
      <point x="389" y="12"/>
      <point x="450" y="54" type="curve"/>
      <point x="476" y="29"/>
      <point x="502" y="6"/>
      <point x="528" y="-15" type="curve"/>
    </contour>
    <contour>
      <point x="282" y="527" type="curve" smooth="yes"/>
      <point x="282" y="574"/>
      <point x="313" y="608"/>
      <point x="358" y="608" type="curve"/>
      <point x="397" y="608"/>
      <point x="421" y="585"/>
      <point x="421" y="549" type="curve" smooth="yes"/>
      <point x="421" y="516"/>
      <point x="398" y="486"/>
      <point x="354" y="464" type="curve" smooth="yes"/>
      <point x="307" y="442" type="line"/>
      <point x="289" y="474"/>
      <point x="282" y="500"/>
    </contour>
    <contour>
      <point x="141" y="190" type="curve" smooth="yes"/>
      <point x="141" y="239"/>
      <point x="172" y="276"/>
      <point x="240" y="307" type="curve"/>
      <point x="278" y="248"/>
      <point x="325" y="188"/>
      <point x="376" y="131" type="curve"/>
      <point x="339" y="108"/>
      <point x="302" y="97"/>
      <point x="262" y="97" type="curve" smooth="yes"/>
      <point x="188" y="97"/>
      <point x="141" y="134"/>
    </contour>
  </outline>
</glyph>
<glyph name="comma" format="2">
  <advance width="236"/>
  <unicode hex="002C"/>
  <outline>
    <contour>
      <point x="34" y="112" type="line"/>
      <point x="-90" y="-151" type="line"/>
      <point x="12" y="-151" type="line"/>
      <point x="173" y="112" type="line"/>
    </contour>
  </outline>
</glyph>
<glyph name="period" format="2">
  <advance width="235"/>
  <unicode hex="002E"/>
  <outline>
    <contour>
      <point x="88" y="152" type="curve"/>
      <point x="39" y="152"/>
      <point x="-3" y="110"/>
      <point x="-3" y="61" type="curve" smooth="yes"/>
      <point x="-3" y="21"/>
      <point x="28" y="-10"/>
      <point x="68" y="-10" type="curve"/>
      <point x="115" y="-10"/>
      <point x="157" y="33"/>
      <point x="157" y="81" type="curve" smooth="yes"/>
      <point x="157" y="121"/>
      <point x="128" y="152"/>
    </contour>
  </outline>
</glyph>
<glyph name="zero" format="2">
  <advance width="673"/>
  <unicode hex="0030"/>
  <outline>
    <contour>
      <point x="308" y="-10" type="curve"/>
      <point x="505" y="-10"/>
      <point x="667" y="189"/>
      <point x="667" y="432" type="curve"/>
      <point x="667" y="602"/>
      <point x="563" y="711"/>
      <point x="403" y="711" type="curve"/>
      <point x="206" y="711"/>
      <point x="45" y="512"/>
      <point x="45" y="269" type="curve"/>
      <point x="45" y="99"/>
      <point x="148" y="-10"/>
    </contour>
    <contour>
      <point x="321" y="109" type="curve"/>
      <point x="231" y="109"/>
      <point x="177" y="172"/>
      <point x="177" y="276" type="curve"/>
      <point x="177" y="449"/>
      <point x="274" y="592"/>
      <point x="390" y="592" type="curve"/>
      <point x="480" y="592"/>
      <point x="535" y="529"/>
      <point x="535" y="424" type="curve"/>
      <point x="535" y="252"/>
      <point x="438" y="109"/>
    </contour>
  </outline>
</glyph>
<glyph name="three" format="2">
  <advance width="604"/>
  <unicode hex="0033"/>
  <outline>
    <contour>
      <point x="550" y="209" type="curve"/>
      <point x="550" y="269"/>
      <point x="516" y="316"/>
      <point x="458" y="342" type="curve"/>
      <point x="542" y="377"/>
      <point x="598" y="446"/>
      <point x="598" y="525" type="curve"/>
      <point x="598" y="633"/>
      <point x="501" y="709"/>
      <point x="362" y="709" type="curve"/>
      <point x="268" y="709"/>
      <point x="174" y="675"/>
      <point x="96" y="611" type="curve"/>
      <point x="168" y="521" type="line"/>
      <point x="227" y="569"/>
      <point x="282" y="590"/>
      <point x="343" y="590" type="curve"/>
      <point x="411" y="590"/>
      <point x="459" y="553"/>
      <point x="459" y="502" type="curve"/>
      <point x="459" y="445"/>
      <point x="395" y="400"/>
      <point x="314" y="400" type="curve" smooth="yes"/>
      <point x="264" y="400" type="line"/>
      <point x="241" y="290" type="line"/>
      <point x="304" y="290" type="line" smooth="yes"/>
      <point x="373" y="290"/>
      <point x="417" y="258"/>
      <point x="417" y="207" type="curve"/>
      <point x="417" y="152"/>
      <point x="355" y="109"/>
      <point x="274" y="109" type="curve" smooth="yes"/>
      <point x="192" y="109"/>
      <point x="137" y="136"/>
      <point x="94" y="197" type="curve"/>
      <point x="-10" y="118" type="line"/>
      <point x="45" y="35"/>
      <point x="142" y="-10"/>
      <point x="265" y="-10" type="curve" smooth="yes"/>
      <point x="424" y="-10"/>
      <point x="550" y="87"/>
    </contour>
  </outline>
</glyph>
<glyph name="four" format="2">
  <advance width="659"/>
  <unicode hex="0034"/>
  <outline>
    <contour>
      <point x="641" y="700" type="line"/>
      <point x="487" y="700" type="line"/>
      <point x="29" y="274" type="line"/>
      <point x="6" y="164" type="line"/>
      <point x="394" y="164" type="line"/>
      <point x="359" y="0" type="line"/>
      <point x="492" y="0" type="line"/>
      <point x="527" y="164" type="line"/>
      <point x="612" y="164" type="line"/>
      <point x="636" y="279" type="line"/>
      <point x="551" y="279" type="line"/>
    </contour>
    <contour>
      <point x="186" y="279" type="line"/>
      <point x="475" y="548" type="line"/>
      <point x="418" y="279" type="line"/>
    </contour>
  </outline>
</glyph>
<glyph name="six" format="2">
  <advance width="625"/>
  <unicode hex="0036"/>
  <outline>
    <contour>
      <point x="308" y="-10" type="curve" smooth="yes"/>
      <point x="460" y="-10"/>
      <point x="587" y="104"/>
      <point x="587" y="243" type="curve"/>
      <point x="587" y="354"/>
      <point x="499" y="433"/>
      <point x="377" y="433" type="curve" smooth="yes"/>
      <point x="308" y="433"/>
      <point x="240" y="407"/>
      <point x="188" y="362" type="curve"/>
      <point x="218" y="494"/>
      <point x="311" y="590"/>
      <point x="422" y="590" type="curve" smooth="yes"/>
      <point x="479" y="590"/>
      <point x="525" y="572"/>
      <point x="561" y="537" type="curve"/>
      <point x="652" y="627" type="line"/>
      <point x="601" y="678"/>
      <point x="524" y="708"/>
      <point x="443" y="708" type="curve" smooth="yes"/>
      <point x="225" y="708"/>
      <point x="45" y="510"/>
      <point x="45" y="271" type="curve"/>
      <point x="45" y="100"/>
      <point x="148" y="-10"/>
    </contour>
    <contour>
      <point x="339" y="328" type="curve" smooth="yes"/>
      <point x="407" y="328"/>
      <point x="455" y="286"/>
      <point x="455" y="227" type="curve"/>
      <point x="455" y="160"/>
      <point x="394" y="106"/>
      <point x="317" y="106" type="curve" smooth="yes"/>
      <point x="234" y="106"/>
      <point x="179" y="165"/>
      <point x="177" y="260" type="curve"/>
      <point x="226" y="305"/>
      <point x="281" y="328"/>
    </contour>
  </outline>
</glyph>
<glyph name="eight" format="2">
  <advance width="621"/>
  <unicode hex="0038"/>
  <outline>
    <contour>
      <point x="281" y="-11" type="curve" smooth="yes"/>
      <point x="443" y="-11"/>
      <point x="572" y="88"/>
      <point x="572" y="212" type="curve" smooth="yes"/>
      <point x="572" y="271"/>
      <point x="539" y="321"/>
      <point x="485" y="350" type="curve"/>
      <point x="562" y="384"/>
      <point x="616" y="454"/>
      <point x="616" y="532" type="curve" smooth="yes"/>
      <point x="616" y="635"/>
      <point x="519" y="710"/>
      <point x="383" y="710" type="curve" smooth="yes"/>
      <point x="232" y="710"/>
      <point x="110" y="613"/>
      <point x="110" y="495" type="curve" smooth="yes"/>
      <point x="110" y="444"/>
      <point x="135" y="400"/>
      <point x="176" y="370" type="curve"/>
      <point x="85" y="339"/>
      <point x="21" y="263"/>
      <point x="21" y="175" type="curve" smooth="yes"/>
      <point x="21" y="65"/>
      <point x="127" y="-11"/>
    </contour>
    <contour>
      <point x="354" y="411" type="curve" smooth="yes"/>
      <point x="288" y="411"/>
      <point x="241" y="447"/>
      <point x="241" y="496" type="curve" smooth="yes"/>
      <point x="241" y="553"/>
      <point x="300" y="600"/>
      <point x="371" y="600" type="curve" smooth="yes"/>
      <point x="435" y="600"/>
      <point x="482" y="563"/>
      <point x="482" y="514" type="curve" smooth="yes"/>
      <point x="482" y="458"/>
      <point x="423" y="411"/>
    </contour>
    <contour>
      <point x="291" y="101" type="curve" smooth="yes"/>
      <point x="213" y="101"/>
      <point x="158" y="141"/>
      <point x="158" y="197" type="curve" smooth="yes"/>
      <point x="158" y="258"/>
      <point x="223" y="307"/>
      <point x="305" y="307" type="curve" smooth="yes"/>
      <point x="383" y="307"/>
      <point x="439" y="267"/>
      <point x="439" y="212" type="curve" smooth="yes"/>
      <point x="439" y="151"/>
      <point x="372" y="101"/>
    </contour>
  </outline>
</glyph>
<glyph name="at" format="2">
  <advance width="776"/>
  <unicode hex="0040"/>
  <outline>
    <contour>
      <point x="342" y="48" type="curve" smooth="yes"/>
      <point x="379" y="48"/>
      <point x="416" y="63"/>
      <point x="446" y="89" type="curve"/>
      <point x="466" y="62"/>
      <point x="500" y="48"/>
      <point x="548" y="48" type="curve" smooth="yes"/>
      <point x="659" y="48"/>
      <point x="737" y="143"/>
      <point x="737" y="276" type="curve"/>
      <point x="737" y="448"/>
      <point x="590" y="581"/>
      <point x="399" y="581" type="curve"/>
      <point x="188" y="581"/>
      <point x="31" y="421"/>
      <point x="31" y="207" type="curve"/>
      <point x="31" y="5"/>
      <point x="187" y="-144"/>
      <point x="400" y="-144" type="curve"/>
      <point x="466" y="-144"/>
      <point x="528" y="-130"/>
      <point x="590" y="-100" type="curve"/>
      <point x="565" y="-44" type="line"/>
      <point x="516" y="-69"/>
      <point x="461" y="-81"/>
      <point x="400" y="-81" type="curve"/>
      <point x="222" y="-81"/>
      <point x="98" y="40"/>
      <point x="98" y="213" type="curve"/>
      <point x="98" y="388"/>
      <point x="228" y="523"/>
      <point x="397" y="523" type="curve"/>
      <point x="552" y="523"/>
      <point x="669" y="415"/>
      <point x="669" y="271" type="curve"/>
      <point x="669" y="178"/>
      <point x="624" y="113"/>
      <point x="561" y="113" type="curve" smooth="yes"/>
      <point x="526" y="113"/>
      <point x="510" y="133"/>
      <point x="518" y="169" type="curve" smooth="yes"/>
      <point x="560" y="372" type="line"/>
      <point x="471" y="372" type="line"/>
      <point x="467" y="352" type="line"/>
      <point x="442" y="374"/>
      <point x="408" y="386"/>
      <point x="373" y="386" type="curve" smooth="yes"/>
      <point x="274" y="386"/>
      <point x="196" y="305"/>
      <point x="196" y="203" type="curve" smooth="yes"/>
      <point x="196" y="116"/>
      <point x="260" y="48"/>
    </contour>
    <contour>
      <point x="283" y="210" type="curve" smooth="yes"/>
      <point x="283" y="265"/>
      <point x="325" y="310"/>
      <point x="376" y="310" type="curve" smooth="yes"/>
      <point x="408" y="310"/>
      <point x="434" y="297"/>
      <point x="451" y="273" type="curve"/>
      <point x="432" y="181" type="line" smooth="yes"/>
      <point x="430" y="168"/>
      <point x="429" y="157"/>
      <point x="429" y="147" type="curve"/>
      <point x="409" y="130"/>
      <point x="387" y="122"/>
      <point x="363" y="122" type="curve" smooth="yes"/>
      <point x="316" y="122"/>
      <point x="283" y="158"/>
    </contour>
  </outline>
</glyph>
<glyph name="A" format="2">
  <advance width="718"/>
  <unicode hex="0041"/>
  <anchor x="444" y="700" name="top"/>
  <anchor x="666" y="0" name="bottom"/>
  <outline>
    <contour>
      <point x="-59" y="0" type="line"/>
      <point x="96" y="0" type="line"/>
      <point x="204" y="184" type="line"/>
      <point x="488" y="184" type="line"/>
      <point x="520" y="0" type="line"/>
      <point x="666" y="0" type="line"/>
      <point x="533" y="700" type="line"/>
      <point x="369" y="700" type="line"/>
    </contour>
    <contour>
      <point x="272" y="300" type="line"/>
      <point x="424" y="558" type="line"/>
      <point x="468" y="300" type="line"/>
    </contour>
  </outline>
</glyph>
<glyph name="B" format="2">
  <advance width="678"/>
  <unicode hex="0042"/>
  <outline>
    <contour>
      <point x="156" y="700" type="line"/>
      <point x="7" y="0" type="line"/>
      <point x="366" y="0" type="line"/>
      <point x="518" y="0"/>
      <point x="633" y="95"/>
      <point x="633" y="223" type="curve" smooth="yes"/>
      <point x="633" y="279"/>
      <point x="603" y="326"/>
      <point x="553" y="355" type="curve"/>
      <point x="621" y="392"/>
      <point x="666" y="458"/>
      <point x="666" y="533" type="curve" smooth="yes"/>
      <point x="666" y="634"/>
      <point x="584" y="700"/>
      <point x="457" y="700" type="curve"/>
    </contour>
    <contour>
      <point x="434" y="580" type="line"/>
      <point x="488" y="580"/>
      <point x="521" y="553"/>
      <point x="521" y="509" type="curve" smooth="yes"/>
      <point x="521" y="454"/>
      <point x="474" y="414"/>
      <point x="410" y="414" type="curve"/>
      <point x="237" y="414" type="line"/>
      <point x="272" y="580" type="line"/>
    </contour>
    <contour>
      <point x="369" y="120" type="curve"/>
      <point x="175" y="120" type="line"/>
      <point x="213" y="301" type="line"/>
      <point x="394" y="301" type="line"/>
      <point x="454" y="301"/>
      <point x="490" y="272"/>
      <point x="490" y="224" type="curve" smooth="yes"/>
      <point x="490" y="163"/>
      <point x="440" y="120"/>
    </contour>
  </outline>
</glyph>
<glyph name="I" format="2">
  <advance width="266"/>
  <unicode hex="0049"/>
  <anchor x="227" y="700" name="top"/>
  <anchor x="149" y="0" name="bottom"/>
  <outline>
    <contour>
      <point x="7" y="0" type="line"/>
      <point x="149" y="0" type="line"/>
      <point x="298" y="700" type="line"/>
      <point x="156" y="700" type="line"/>
    </contour>
  </outline>
</glyph>
<glyph name="K" format="2">
  <advance width="683"/>
  <unicode hex="004B"/>
  <anchor x="285" y="0" name="bottom"/>
  <outline>
    <contour>
      <point x="7" y="0" type="line"/>
      <point x="149" y="0" type="line"/>
      <point x="220" y="332" type="line"/>
      <point x="452" y="0" type="line"/>
      <point x="632" y="0" type="line"/>
      <point x="367" y="363" type="line"/>
      <point x="776" y="700" type="line"/>
      <point x="591" y="700" type="line"/>
      <point x="234" y="397" type="line"/>
      <point x="298" y="700" type="line"/>
      <point x="156" y="700" type="line"/>
    </contour>
  </outline>
</glyph>
<glyph name="M" format="2">
  <advance width="864"/>
  <unicode hex="004D"/>
  <outline>
    <contour>
      <point x="390" y="50" type="line"/>
      <point x="724" y="513" type="line"/>
      <point x="616" y="0" type="line"/>
      <point x="747" y="0" type="line"/>
      <point x="896" y="700" type="line"/>
      <point x="710" y="700" type="line"/>
      <point x="442" y="323" type="line"/>
      <point x="334" y="700" type="line"/>
      <point x="156" y="700" type="line"/>
      <point x="7" y="0" type="line"/>
      <point x="141" y="0" type="line"/>
      <point x="250" y="515" type="line"/>
    </contour>
  </outline>
</glyph>
<glyph name="N" format="2">
  <advance width="734"/>
  <unicode hex="004E"/>
  <anchor x="460" y="700" name="top"/>
  <anchor x="311" y="0" name="bottom"/>
  <outline>
    <contour>
      <point x="156" y="700" type="line"/>
      <point x="7" y="0" type="line"/>
      <point x="141" y="0" type="line"/>
      <point x="243" y="480" type="line"/>
      <point x="492" y="0" type="line"/>
      <point x="616" y="0" type="line"/>
      <point x="765" y="700" type="line"/>
      <point x="631" y="700" type="line"/>
      <point x="532" y="235" type="line"/>
      <point x="290" y="700" type="line"/>
    </contour>
  </outline>
</glyph>
<glyph name="R" format="2">
  <advance width="666"/>
  <unicode hex="0052"/>
  <anchor x="419" y="700" name="top"/>
  <anchor x="286" y="0" name="bottom"/>
  <outline>
    <contour>
      <point x="7" y="0" type="line"/>
      <point x="149" y="0" type="line"/>
      <point x="206" y="270" type="line"/>
      <point x="362" y="270" type="line"/>
      <point x="455" y="0" type="line"/>
      <point x="605" y="0" type="line"/>
      <point x="500" y="280" type="line"/>
      <point x="607" y="309"/>
      <point x="683" y="397"/>
      <point x="683" y="505" type="curve" smooth="yes"/>
      <point x="683" y="621"/>
      <point x="596" y="700"/>
      <point x="468" y="700" type="curve"/>
      <point x="156" y="700" type="line"/>
    </contour>
    <contour>
      <point x="443" y="575" type="line"/>
      <point x="501" y="575"/>
      <point x="538" y="543"/>
      <point x="538" y="492" type="curve" smooth="yes"/>
      <point x="538" y="432"/>
      <point x="488" y="388"/>
      <point x="420" y="388" type="curve"/>
      <point x="232" y="388" type="line"/>
      <point x="271" y="575" type="line"/>
    </contour>
  </outline>
</glyph>
<glyph name="W" format="2">
  <advance width="926"/>
  <unicode hex="0057"/>
  <anchor x="554" y="700" name="top"/>
  <outline>
    <contour>
      <point x="271" y="0" type="line"/>
      <point x="511" y="489" type="line"/>
      <point x="544" y="0" type="line"/>
      <point x="694" y="0" type="line"/>
      <point x="993" y="700" type="line"/>
      <point x="848" y="700" type="line"/>
      <point x="654" y="225" type="line"/>
      <point x="621" y="700" type="line"/>
      <point x="487" y="700" type="line"/>
      <point x="253" y="225" type="line"/>
      <point x="260" y="700" type="line"/>
      <point x="120" y="700" type="line"/>
      <point x="122" y="0" type="line"/>
    </contour>
  </outline>
</glyph>
<glyph name="X" format="2">
  <advance width="686"/>
  <unicode hex="0058"/>
  <outline>
    <contour>
      <point x="113" y="0" type="line"/>
      <point x="346" y="255" type="line"/>
      <point x="473" y="0" type="line"/>
      <point x="633" y="0" type="line"/>
      <point x="449" y="358" type="line"/>
      <point x="771" y="700" type="line"/>
      <point x="599" y="700" type="line"/>
      <point x="388" y="470" type="line"/>
      <point x="274" y="700" type="line"/>
      <point x="113" y="700" type="line"/>
      <point x="285" y="366" type="line"/>
      <point x="-59" y="0" type="line"/>
    </contour>
  </outline>
</glyph>
<glyph name="Y" format="2">
  <advance width="691"/>
  <unicode hex="0059"/>
  <anchor x="432" y="700" name="top"/>
  <outline>
    <contour>
      <point x="219" y="0" type="line"/>
      <point x="361" y="0" type="line"/>
      <point x="417" y="267" type="line"/>
      <point x="791" y="700" type="line"/>
      <point x="624" y="700" type="line"/>
      <point x="368" y="396" type="line"/>
      <point x="238" y="700" type="line"/>
      <point x="87" y="700" type="line"/>
      <point x="276" y="267" type="line"/>
    </contour>
  </outline>
</glyph>
<glyph name="Z" format="2">
  <advance width="604"/>
  <unicode hex="005A"/>
  <anchor x="377" y="700" name="top"/>
  <outline>
    <contour>
      <point x="-34" y="0" type="line"/>
      <point x="533" y="0" type="line"/>
      <point x="560" y="126" type="line"/>
      <point x="186" y="126" type="line"/>
      <point x="656" y="601" type="line"/>
      <point x="678" y="700" type="line"/>
      <point x="118" y="700" type="line"/>
      <point x="91" y="574" type="line"/>
      <point x="456" y="574" type="line"/>
      <point x="-13" y="99" type="line"/>
    </contour>
  </outline>
</glyph>
<glyph name="asciicircum" format="2">
  <advance width="542"/>
  <unicode hex="005E"/>
  <outline>
    <contour>
      <point x="52" y="350" type="line"/>
      <point x="166" y="350" type="line"/>
      <point x="345" y="597" type="line"/>
      <point x="419" y="350" type="line"/>
      <point x="528" y="350" type="line"/>
      <point x="421" y="700" type="line"/>
      <point x="306" y="700" type="line"/>
    </contour>
  </outline>
</glyph>
<glyph name="grave" format="2">
  <advance width="507"/>
  <unicode hex="0060"/>
  <anchor x="329" y="521" name="_top"/>
  <outline>
    <contour>
      <point x="317" y="738" type="line"/>
      <point x="163" y="738" type="line"/>
      <point x="295" y="608" type="line"/>
      <point x="403" y="608" type="line"/>
    </contour>
  </outline>
</glyph>
<glyph name="a" format="2">
  <advance width="545"/>
  <unicode hex="0061"/>
  <note>
Version created Mon Aug  6 16:22:34 2018
</note>
  <anchor x="297" y="521" name="top"/>
  <anchor x="442" y="0" name="bottom"/>
  <outline>
    <contour>
      <point x="186" y="-6" type="curve" smooth="yes"/>
      <point x="233" y="-6"/>
      <point x="274" y="6"/>
      <point x="317" y="32" type="curve"/>
      <point x="310" y="0" type="line"/>
      <point x="442" y="0" type="line"/>
      <point x="508" y="313" type="line" smooth="yes"/>
      <point x="536" y="449"/>
      <point x="458" y="530"/>
      <point x="299" y="530" type="curve" smooth="yes"/>
      <point x="236" y="530"/>
      <point x="167" y="516"/>
      <point x="90" y="486" type="curve"/>
      <point x="123" y="383" type="line"/>
      <point x="187" y="407"/>
      <point x="232" y="417"/>
      <point x="270" y="417" type="curve" smooth="yes"/>
      <point x="355" y="417"/>
      <point x="391" y="382"/>
      <point x="376" y="311" type="curve" smooth="yes"/>
      <point x="370" y="285" type="line"/>
      <point x="327" y="301"/>
      <point x="277" y="311"/>
      <point x="228" y="311" type="curve" smooth="yes"/>
      <point x="92" y="311"/>
      <point x="9" y="245"/>
      <point x="9" y="139" type="curve" smooth="yes"/>
      <point x="9" y="51"/>
      <point x="77" y="-6"/>
    </contour>
    <contour>
      <point x="136" y="151" type="curve" smooth="yes"/>
      <point x="136" y="194"/>
      <point x="175" y="221"/>
      <point x="238" y="221" type="curve" smooth="yes"/>
      <point x="278" y="221"/>
      <point x="319" y="213"/>
      <point x="352" y="198" type="curve"/>
      <point x="335" y="120" type="line"/>
      <point x="304" y="100"/>
      <point x="269" y="91"/>
      <point x="232" y="91" type="curve" smooth="yes"/>
      <point x="172" y="91"/>
      <point x="136" y="113"/>
    </contour>
  </outline>
</glyph>
<glyph name="e" format="2">
  <advance width="576"/>
  <unicode hex="0065"/>
  <anchor x="314" y="521" name="top"/>
  <anchor x="377" y="0" name="bottom"/>
  <outline>
    <contour>
      <point x="490" y="54" type="curve"/>
      <point x="415" y="141" type="line"/>
      <point x="385" y="117"/>
      <point x="346" y="103"/>
      <point x="302" y="103" type="curve" smooth="yes"/>
      <point x="228" y="103"/>
      <point x="173" y="148"/>
      <point x="161" y="215" type="curve"/>
      <point x="541" y="215" type="line"/>
      <point x="545" y="251"/>
      <point x="546" y="263"/>
      <point x="546" y="278" type="curve" smooth="yes"/>
      <point x="546" y="424"/>
      <point x="448" y="529"/>
      <point x="310" y="529" type="curve" smooth="yes"/>
      <point x="155" y="529"/>
      <point x="28" y="397"/>
      <point x="28" y="238" type="curve" smooth="yes"/>
      <point x="28" y="93"/>
      <point x="138" y="-11"/>
      <point x="292" y="-11" type="curve" smooth="yes"/>
      <point x="367" y="-11"/>
      <point x="426" y="9"/>
    </contour>
    <contour>
      <point x="303" y="415" type="curve" smooth="yes"/>
      <point x="363" y="415"/>
      <point x="408" y="374"/>
      <point x="420" y="312" type="curve"/>
      <point x="170" y="312" type="line"/>
      <point x="192" y="373"/>
      <point x="243" y="415"/>
    </contour>
  </outline>
</glyph>
<glyph name="g" format="2">
  <advance width="619"/>
  <unicode hex="0067"/>
  <note>
Version created Sun Jan 13 16:53:00 2019
</note>
  <anchor x="339" y="521" name="top"/>
  <outline>
    <contour>
      <point x="262" y="-3" type="curve" smooth="yes"/>
      <point x="304" y="-3"/>
      <point x="345" y="8"/>
      <point x="381" y="28" type="curve"/>
      <point x="373" y="-11" type="line" smooth="yes"/>
      <point x="359" y="-71"/>
      <point x="321" y="-102"/>
      <point x="256" y="-102" type="curve" smooth="yes"/>
      <point x="199" y="-102"/>
      <point x="137" y="-81"/>
      <point x="79" y="-43" type="curve"/>
      <point x="17" y="-144" type="line"/>
      <point x="82" y="-189"/>
      <point x="174" y="-217"/>
      <point x="260" y="-217" type="curve" smooth="yes"/>
      <point x="393" y="-217"/>
      <point x="479" y="-149"/>
      <point x="505" y="-26" type="curve" smooth="yes"/>
      <point x="620" y="521" type="line"/>
      <point x="486" y="521" type="line"/>
      <point x="476" y="475" type="line"/>
      <point x="436" y="509"/>
      <point x="382" y="528"/>
      <point x="320" y="528" type="curve" smooth="yes"/>
      <point x="160" y="528"/>
      <point x="32" y="398"/>
      <point x="32" y="236" type="curve" smooth="yes"/>
      <point x="32" y="99"/>
      <point x="131" y="-3"/>
    </contour>
    <contour>
      <point x="164" y="248" type="curve" smooth="yes"/>
      <point x="164" y="338"/>
      <point x="235" y="411"/>
      <point x="325" y="411" type="curve" smooth="yes"/>
      <point x="376" y="411"/>
      <point x="423" y="390"/>
      <point x="451" y="357" type="curve"/>
      <point x="407" y="150" type="line"/>
      <point x="376" y="124"/>
      <point x="339" y="111"/>
      <point x="298" y="111" type="curve" smooth="yes"/>
      <point x="220" y="111"/>
      <point x="164" y="169"/>
    </contour>
  </outline>
</glyph>
<glyph name="k" format="2">
  <advance width="557"/>
  <unicode hex="006B"/>
  <anchor x="229" y="0" name="bottom"/>
  <outline>
    <contour>
      <point x="-2" y="0" type="line"/>
      <point x="132" y="0" type="line"/>
      <point x="181" y="231" type="line"/>
      <point x="357" y="0" type="line"/>
      <point x="520" y="0" type="line"/>
      <point x="312" y="261" type="line"/>
      <point x="618" y="521" type="line"/>
      <point x="452" y="521" type="line"/>
      <point x="195" y="296" type="line"/>
      <point x="287" y="730" type="line"/>
      <point x="147" y="700" type="line"/>
    </contour>
  </outline>
</glyph>
<glyph name="o" format="2">
  <advance width="607"/>
  <unicode hex="006F"/>
  <anchor x="329" y="521" name="top"/>
  <outline>
    <contour>
      <point x="30" y="241" type="curve"/>
      <point x="30" y="98"/>
      <point x="140" y="-10"/>
      <point x="286" y="-10" type="curve" smooth="yes"/>
      <point x="444" y="-10"/>
      <point x="577" y="123"/>
      <point x="577" y="281" type="curve"/>
      <point x="577" y="423"/>
      <point x="467" y="531"/>
      <point x="321" y="531" type="curve" smooth="yes"/>
      <point x="162" y="531"/>
      <point x="30" y="399"/>
    </contour>
    <contour>
      <point x="292" y="109" type="curve" smooth="yes"/>
      <point x="217" y="109"/>
      <point x="162" y="167"/>
      <point x="162" y="247" type="curve"/>
      <point x="162" y="337"/>
      <point x="230" y="412"/>
      <point x="314" y="412" type="curve" smooth="yes"/>
      <point x="390" y="412"/>
      <point x="445" y="354"/>
      <point x="445" y="275" type="curve"/>
      <point x="445" y="184"/>
      <point x="376" y="109"/>
    </contour>
  </outline>
</glyph>
<glyph name="p" format="2">
  <advance width="619"/>
  <unicode hex="0070"/>
  <outline>
    <contour>
      <point x="-47" y="-209" type="line"/>
      <point x="87" y="-209" type="line"/>
      <point x="143" y="50" type="line"/>
      <point x="183" y="13"/>
      <point x="237" y="-7"/>
      <point x="299" y="-7" type="curve" smooth="yes"/>
      <point x="460" y="-7"/>
      <point x="589" y="124"/>
      <point x="589" y="287" type="curve" smooth="yes"/>
      <point x="589" y="424"/>
      <point x="489" y="528"/>
      <point x="357" y="528" type="curve" smooth="yes"/>
      <point x="314" y="528"/>
      <point x="273" y="517"/>
      <point x="236" y="495" type="curve"/>
      <point x="241" y="521" type="line"/>
      <point x="108" y="521" type="line"/>
    </contour>
    <contour>
      <point x="322" y="412" type="curve" smooth="yes"/>
      <point x="401" y="412"/>
      <point x="458" y="353"/>
      <point x="458" y="275" type="curve" smooth="yes"/>
      <point x="458" y="183"/>
      <point x="386" y="110"/>
      <point x="294" y="110" type="curve" smooth="yes"/>
      <point x="242" y="110"/>
      <point x="194" y="132"/>
      <point x="168" y="168" type="curve"/>
      <point x="212" y="373" type="line"/>
      <point x="243" y="398"/>
      <point x="280" y="412"/>
    </contour>
  </outline>
</glyph>
<glyph name="r" format="2">
  <advance width="399"/>
  <unicode hex="0072"/>
  <anchor x="278" y="521" name="top"/>
  <anchor x="64" y="0" name="bottom"/>
  <outline>
    <contour>
      <point x="-3" y="0" type="line"/>
      <point x="132" y="0" type="line"/>
      <point x="205" y="345" type="line"/>
      <point x="238" y="390"/>
      <point x="285" y="415"/>
      <point x="335" y="415" type="curve" smooth="yes"/>
      <point x="361" y="415"/>
      <point x="395" y="407"/>
      <point x="409" y="397" type="curve"/>
      <point x="434" y="517" type="line"/>
      <point x="420" y="526"/>
      <point x="396" y="531"/>
      <point x="369" y="531" type="curve" smooth="yes"/>
      <point x="317" y="531"/>
      <point x="270" y="510"/>
      <point x="231" y="470" type="curve"/>
      <point x="242" y="521" type="line"/>
      <point x="108" y="521" type="line"/>
    </contour>
  </outline>
</glyph>
<glyph name="v" format="2">
  <advance width="568"/>
  <unicode hex="0076"/>
  <outline>
    <contour>
      <point x="164" y="0" type="line"/>
      <point x="293" y="0" type="line"/>
      <point x="623" y="521" type="line"/>
      <point x="476" y="521" type="line"/>
      <point x="263" y="174" type="line"/>
      <point x="198" y="521" type="line"/>
      <point x="55" y="521" type="line"/>
    </contour>
  </outline>
</glyph>
<glyph name="w" format="2">
  <advance width="756"/>
  <unicode hex="0077"/>
  <anchor x="432" y="521" name="top"/>
  <outline>
    <contour>
      <point x="224" y="0" type="line"/>
      <point x="394" y="334" type="line"/>
      <point x="422" y="0" type="line"/>
      <point x="551" y="0" type="line"/>
      <point x="802" y="521" type="line"/>
      <point x="674" y="521" type="line"/>
      <point x="518" y="184" type="line"/>
      <point x="488" y="521" type="line"/>
      <point x="376" y="521" type="line"/>
      <point x="203" y="183" type="line"/>
      <point x="190" y="521" type="line"/>
      <point x="65" y="521" type="line"/>
      <point x="96" y="0" type="line"/>
    </contour>
  </outline>
</glyph>
<glyph name="y" format="2">
  <advance width="565"/>
  <unicode hex="0079"/>
  <anchor x="332" y="521" name="top"/>
  <outline>
    <contour>
      <point x="128" y="-25" type="line" smooth="yes"/>
      <point x="99" y="-70"/>
      <point x="64" y="-91"/>
      <point x="17" y="-91" type="curve" smooth="yes"/>
      <point x="-2" y="-91"/>
      <point x="-19" y="-89"/>
      <point x="-32" y="-85" type="curve"/>
      <point x="-56" y="-202" type="line"/>
      <point x="-32" y="-208"/>
      <point x="-6" y="-212"/>
      <point x="23" y="-212" type="curve" smooth="yes"/>
      <point x="121" y="-212"/>
      <point x="189" y="-168"/>
      <point x="256" y="-62" type="curve" smooth="yes"/>
      <point x="623" y="521" type="line"/>
      <point x="476" y="521" type="line"/>
      <point x="252" y="154" type="line"/>
      <point x="198" y="521" type="line"/>
      <point x="55" y="521" type="line"/>
      <point x="145" y="1" type="line"/>
    </contour>
  </outline>
</glyph>
<glyph name="braceleft" format="2">
  <advance width="420"/>
  <unicode hex="007B"/>
  <outline>
    <contour>
      <point x="246" y="76" type="line" smooth="yes"/>
      <point x="296" y="157"/>
      <point x="256" y="220"/>
      <point x="179" y="241" type="curve"/>
      <point x="259" y="255"/>
      <point x="321" y="315"/>
      <point x="310" y="397" type="curve" smooth="yes"/>
      <point x="293" y="501" type="line" smooth="yes"/>
      <point x="283" y="570"/>
      <point x="321" y="606"/>
      <point x="370" y="606" type="curve" smooth="yes"/>
      <point x="387" y="606"/>
      <point x="412" y="600"/>
      <point x="432" y="591" type="curve"/>
      <point x="472" y="688" type="line"/>
      <point x="436" y="705"/>
      <point x="400" y="710"/>
      <point x="363" y="710" type="curve" smooth="yes"/>
      <point x="239" y="710"/>
      <point x="159" y="621"/>
      <point x="178" y="503" type="curve" smooth="yes"/>
      <point x="195" y="408" type="line" smooth="yes"/>
      <point x="206" y="344"/>
      <point x="168" y="297"/>
      <point x="104" y="297" type="curve" smooth="yes"/>
      <point x="22" y="297" type="line"/>
      <point x="0" y="195" type="line"/>
      <point x="82" y="195" type="line" smooth="yes"/>
      <point x="148" y="195"/>
      <point x="164" y="139"/>
      <point x="126" y="80" type="curve" smooth="yes"/>
      <point x="73" y="-2" type="line" smooth="yes"/>
      <point x="1" y="-113"/>
      <point x="48" y="-219"/>
      <point x="197" y="-219" type="curve" smooth="yes"/>
      <point x="224" y="-219"/>
      <point x="251" y="-216"/>
      <point x="283" y="-207" type="curve"/>
      <point x="284" y="-108" type="line"/>
      <point x="268" y="-113"/>
      <point x="251" y="-116"/>
      <point x="232" y="-116" type="curve" smooth="yes"/>
      <point x="181" y="-116"/>
      <point x="149" y="-80"/>
      <point x="190" y="-14" type="curve" smooth="yes"/>
    </contour>
  </outline>
</glyph>
<glyph name="bar" format="2">
  <advance width="318"/>
  <unicode hex="007C"/>
  <outline>
    <contour>
      <point x="-4" y="-212" type="line"/>
      <point x="121" y="-212" type="line"/>
      <point x="315" y="700" type="line"/>
      <point x="190" y="700" type="line"/>
    </contour>
  </outline>
</glyph>
<glyph name="cent" format="2">
  <advance width="521"/>
  <unicode hex="00A2"/>
  <outline>
    <contour>
      <point x="189" y="-110" type="line"/>
      <point x="250" y="-110" type="line"/>
      <point x="271" y="-11" type="line"/>
      <point x="274" y="-11" type="line" smooth="yes"/>
      <point x="349" y="-11"/>
      <point x="419" y="17"/>
      <point x="478" y="70" type="curve"/>
      <point x="409" y="160" type="line"/>
      <point x="372" y="127"/>
      <point x="336" y="110"/>
      <point x="296" y="108" type="curve"/>
      <point x="359" y="403" type="line"/>
      <point x="389" y="394"/>
      <point x="415" y="373"/>
      <point x="436" y="341" type="curve"/>
      <point x="529" y="425" type="line"/>
      <point x="495" y="472"/>
      <point x="443" y="507"/>
      <point x="384" y="522" type="curve"/>
      <point x="405" y="623" type="line"/>
      <point x="344" y="623" type="line"/>
      <point x="324" y="530" type="line"/>
      <point x="315" y="530" type="line" smooth="yes"/>
      <point x="156" y="530"/>
      <point x="27" y="398"/>
      <point x="27" y="234" type="curve" smooth="yes"/>
      <point x="27" y="115"/>
      <point x="103" y="22"/>
      <point x="211" y="-4" type="curve"/>
    </contour>
    <contour>
      <point x="161" y="241" type="curve" smooth="yes"/>
      <point x="161" y="329"/>
      <point x="222" y="401"/>
      <point x="299" y="409" type="curve"/>
      <point x="237" y="118" type="line"/>
      <point x="191" y="137"/>
      <point x="161" y="183"/>
    </contour>
  </outline>
</glyph>
<glyph name="sterling" format="2">
  <advance width="643"/>
  <unicode hex="00A3"/>
  <outline>
    <contour>
      <point x="181" y="29" type="curve" smooth="yes"/>
      <point x="338" y="-17" type="line" smooth="yes"/>
      <point x="448" y="-51"/>
      <point x="525" y="-27"/>
      <point x="596" y="63" type="curve"/>
      <point x="509" y="130" type="line"/>
      <point x="472" y="82"/>
      <point x="433" y="69"/>
      <point x="378" y="85" type="curve" smooth="yes"/>
      <point x="229" y="130" type="line"/>
      <point x="262" y="156"/>
      <point x="279" y="196"/>
      <point x="279" y="247" type="curve" smooth="yes"/>
      <point x="279" y="286" type="line"/>
      <point x="444" y="286" type="line"/>
      <point x="463" y="375" type="line"/>
      <point x="280" y="375" type="line"/>
      <point x="280" y="456" type="line" smooth="yes"/>
      <point x="280" y="541"/>
      <point x="328" y="596"/>
      <point x="405" y="596" type="curve" smooth="yes"/>
      <point x="479" y="596"/>
      <point x="521" y="558"/>
      <point x="531" y="480" type="curve"/>
      <point x="647" y="511" type="line"/>
      <point x="627" y="639"/>
      <point x="543" y="708"/>
      <point x="408" y="708" type="curve" smooth="yes"/>
      <point x="260" y="708"/>
      <point x="154" y="601"/>
      <point x="154" y="451" type="curve" smooth="yes"/>
      <point x="153" y="375" type="line"/>
      <point x="73" y="375" type="line"/>
      <point x="54" y="286" type="line"/>
      <point x="153" y="286" type="line"/>
      <point x="152" y="210" type="line" smooth="yes"/>
      <point x="151" y="181"/>
      <point x="140" y="159"/>
      <point x="121" y="147" type="curve"/>
      <point x="57" y="143"/>
      <point x="5" y="113"/>
      <point x="-42" y="52" type="curve"/>
      <point x="45" y="-22" type="line"/>
      <point x="85" y="31"/>
      <point x="125" y="45"/>
    </contour>
  </outline>
</glyph>
<glyph name="yen" format="2">
  <advance width="696"/>
  <unicode hex="00A5"/>
  <outline>
    <contour>
      <point x="219" y="0" type="line"/>
      <point x="361" y="0" type="line"/>
      <point x="391" y="142" type="line"/>
      <point x="564" y="142" type="line"/>
      <point x="579" y="214" type="line"/>
      <point x="406" y="214" type="line"/>
      <point x="417" y="267" type="line"/>
      <point x="423" y="274" type="line"/>
      <point x="593" y="274" type="line"/>
      <point x="608" y="347" type="line"/>
      <point x="486" y="347" type="line"/>
      <point x="791" y="700" type="line"/>
      <point x="624" y="700" type="line"/>
      <point x="368" y="396" type="line"/>
      <point x="238" y="700" type="line"/>
      <point x="87" y="700" type="line"/>
      <point x="241" y="347" type="line"/>
      <point x="121" y="347" type="line"/>
      <point x="105" y="274" type="line"/>
      <point x="273" y="274" type="line"/>
      <point x="276" y="267" type="line"/>
      <point x="265" y="214" type="line"/>
      <point x="92" y="214" type="line"/>
      <point x="77" y="142" type="line"/>
      <point x="249" y="142" type="line"/>
    </contour>
  </outline>
</glyph>
<glyph name="uni00A6" format="2">
  <advance width="320"/>
  <unicode hex="00A6"/>
  <outline>
    <contour>
      <point x="228" y="284" type="line"/>
      <point x="317" y="700" type="line"/>
      <point x="191" y="700" type="line"/>
      <point x="102" y="284" type="line"/>
    </contour>
    <contour>
      <point x="-3" y="-212" type="line"/>
      <point x="123" y="-212" type="line"/>
      <point x="211" y="204" type="line"/>
      <point x="85" y="204" type="line"/>
    </contour>
  </outline>
</glyph>
<glyph name="dieresis" format="2">
  <advance width="577"/>
  <unicode hex="00A8"/>
  <anchor x="344" y="521" name="_top"/>
  <outline>
    <contour>
      <point x="261" y="602" type="curve"/>
      <point x="304" y="602"/>
      <point x="342" y="640"/>
      <point x="342" y="683" type="curve" smooth="yes"/>
      <point x="342" y="719"/>
      <point x="315" y="747"/>
      <point x="279" y="747" type="curve"/>
      <point x="234" y="747"/>
      <point x="196" y="709"/>
      <point x="196" y="666" type="curve" smooth="yes"/>
      <point x="196" y="630"/>
      <point x="224" y="602"/>
    </contour>
    <contour>
      <point x="475" y="602" type="curve"/>
      <point x="518" y="602"/>
      <point x="556" y="640"/>
      <point x="556" y="683" type="curve" smooth="yes"/>
      <point x="556" y="719"/>
      <point x="529" y="747"/>
      <point x="493" y="747" type="curve"/>
      <point x="448" y="747"/>
      <point x="410" y="709"/>
      <point x="410" y="666" type="curve" smooth="yes"/>
      <point x="410" y="630"/>
      <point x="438" y="602"/>
    </contour>
  </outline>
</glyph>
<glyph name="copyright" format="2">
  <advance width="774"/>
  <unicode hex="00A9"/>
  <outline>
    <contour>
      <point x="52" y="307" type="curve" smooth="yes"/>
      <point x="52" y="125"/>
      <point x="187" y="-11"/>
      <point x="370" y="-11" type="curve" smooth="yes"/>
      <point x="582" y="-11"/>
      <point x="761" y="174"/>
      <point x="761" y="392" type="curve" smooth="yes"/>
      <point x="761" y="574"/>
      <point x="626" y="710"/>
      <point x="443" y="710" type="curve" smooth="yes"/>
      <point x="230" y="710"/>
      <point x="52" y="525"/>
    </contour>
    <contour>
      <point x="696" y="385" type="curve" smooth="yes"/>
      <point x="696" y="206"/>
      <point x="547" y="50"/>
      <point x="375" y="49" type="curve" smooth="yes"/>
      <point x="226" y="49"/>
      <point x="117" y="162"/>
      <point x="117" y="314" type="curve" smooth="yes"/>
      <point x="117" y="493"/>
      <point x="266" y="649"/>
      <point x="437" y="649" type="curve" smooth="yes"/>
      <point x="586" y="649"/>
      <point x="696" y="537"/>
    </contour>
    <contour>
      <point x="224" y="324" type="curve" smooth="yes"/>
      <point x="224" y="231"/>
      <point x="294" y="163"/>
      <point x="389" y="163" type="curve" smooth="yes"/>
      <point x="441" y="163"/>
      <point x="493" y="182"/>
      <point x="531" y="216" type="curve"/>
      <point x="489" y="281" type="line"/>
      <point x="460" y="257"/>
      <point x="434" y="246"/>
      <point x="405" y="246" type="curve" smooth="yes"/>
      <point x="355" y="246"/>
      <point x="320" y="283"/>
      <point x="320" y="333" type="curve" smooth="yes"/>
      <point x="320" y="398"/>
      <point x="371" y="455"/>
      <point x="431" y="455" type="curve" smooth="yes"/>
      <point x="466" y="455"/>
      <point x="494" y="438"/>
      <point x="516" y="405" type="curve"/>
      <point x="586" y="462" type="line"/>
      <point x="557" y="509"/>
      <point x="498" y="540"/>
      <point x="438" y="540" type="curve" smooth="yes"/>
      <point x="324" y="540"/>
      <point x="224" y="438"/>
    </contour>
  </outline>
</glyph>
<glyph name="ordfeminine" format="2">
  <advance width="429"/>
  <unicode hex="00AA"/>
  <outline>
    <contour>
      <point x="200" y="306" type="curve" smooth="yes"/>
      <point x="234" y="306"/>
      <point x="264" y="314"/>
      <point x="296" y="333" type="curve"/>
      <point x="291" y="311" type="line"/>
      <point x="396" y="311" type="line"/>
      <point x="446" y="545" type="line" smooth="yes"/>
      <point x="468" y="647"/>
      <point x="408" y="710"/>
      <point x="287" y="710" type="curve" smooth="yes"/>
      <point x="238" y="710"/>
      <point x="185" y="699"/>
      <point x="127" y="676" type="curve"/>
      <point x="153" y="595" type="line"/>
      <point x="203" y="613"/>
      <point x="235" y="621"/>
      <point x="262" y="621" type="curve" smooth="yes"/>
      <point x="325" y="621"/>
      <point x="352" y="596"/>
      <point x="341" y="544" type="curve" smooth="yes"/>
      <point x="337" y="527" type="line"/>
      <point x="304" y="538"/>
      <point x="267" y="545"/>
      <point x="232" y="545" type="curve" smooth="yes"/>
      <point x="130" y="545"/>
      <point x="66" y="496"/>
      <point x="66" y="416" type="curve" smooth="yes"/>
      <point x="66" y="349"/>
      <point x="118" y="306"/>
    </contour>
    <contour>
      <point x="168" y="424" type="curve" smooth="yes"/>
      <point x="168" y="456"/>
      <point x="195" y="475"/>
      <point x="242" y="475" type="curve" smooth="yes"/>
      <point x="268" y="475"/>
      <point x="297" y="469"/>
      <point x="323" y="459" type="curve"/>
      <point x="310" y="401" type="line"/>
      <point x="288" y="388"/>
      <point x="263" y="382"/>
      <point x="237" y="382" type="curve" smooth="yes"/>
      <point x="192" y="382"/>
      <point x="168" y="397"/>
    </contour>
  </outline>
</glyph>
<glyph name="macron" format="2">
  <advance width="507"/>
  <unicode hex="00AF"/>
  <anchor x="309" y="521" name="_top"/>
  <outline>
    <contour>
      <point x="510" y="713" type="line"/>
      <point x="196" y="713" type="line"/>
      <point x="177" y="623" type="line"/>
      <point x="491" y="623" type="line"/>
    </contour>
  </outline>
</glyph>
<glyph name="plusminus" format="2">
  <advance width="539"/>
  <unicode hex="00B1"/>
  <outline>
    <contour>
      <point x="309" y="199" type="line"/>
      <point x="343" y="356" type="line"/>
      <point x="514" y="356" type="line"/>
      <point x="537" y="462" type="line"/>
      <point x="365" y="462" type="line"/>
      <point x="398" y="616" type="line"/>
      <point x="293" y="616" type="line"/>
      <point x="260" y="462" type="line"/>
      <point x="88" y="462" type="line"/>
      <point x="66" y="356" type="line"/>
      <point x="238" y="356" type="line"/>
      <point x="204" y="199" type="line"/>
    </contour>
    <contour>
      <point x="461" y="105" type="line"/>
      <point x="12" y="105" type="line"/>
      <point x="-10" y="-1" type="line"/>
      <point x="438" y="-1" type="line"/>
    </contour>
  </outline>
</glyph>
<glyph name="acute" format="2">
  <advance width="506"/>
  <unicode hex="00B4"/>
  <anchor x="275" y="521" name="_top"/>
  <outline>
    <contour>
      <point x="341" y="738" type="line"/>
      <point x="224" y="608" type="line"/>
      <point x="336" y="608" type="line"/>
      <point x="496" y="738" type="line"/>
    </contour>
  </outline>
</glyph>
<glyph name="paragraph" format="2">
  <advance width="724"/>
  <unicode hex="00B6"/>
  <outline>
    <contour>
      <point x="271" y="0" type="line"/>
      <point x="382" y="0" type="line"/>
      <point x="436" y="253" type="line"/>
      <point x="530" y="253" type="line"/>
      <point x="476" y="0" type="line"/>
      <point x="586" y="0" type="line"/>
      <point x="735" y="700" type="line"/>
      <point x="360" y="700" type="line" smooth="yes"/>
      <point x="204" y="700"/>
      <point x="90" y="593"/>
      <point x="90" y="446" type="curve" smooth="yes"/>
      <point x="90" y="330"/>
      <point x="179" y="253"/>
      <point x="312" y="253" type="curve" smooth="yes"/>
      <point x="325" y="253" type="line"/>
    </contour>
    <contour>
      <point x="553" y="361" type="line"/>
      <point x="459" y="361" type="line"/>
      <point x="507" y="589" type="line"/>
      <point x="601" y="589" type="line"/>
    </contour>
    <contour>
      <point x="319" y="361" type="line" smooth="yes"/>
      <point x="252" y="361"/>
      <point x="209" y="400"/>
      <point x="209" y="462" type="curve" smooth="yes"/>
      <point x="209" y="535"/>
      <point x="266" y="589"/>
      <point x="342" y="589" type="curve" smooth="yes"/>
      <point x="396" y="589" type="line"/>
      <point x="348" y="361" type="line"/>
    </contour>
  </outline>
</glyph>
<glyph name="cedilla" format="2">
  <advance width="507"/>
  <unicode hex="00B8"/>
  <anchor x="229" y="0" name="_bottom"/>
  <outline>
    <contour>
      <point x="313" y="-127" type="curve" smooth="yes"/>
      <point x="313" y="-84"/>
      <point x="286" y="-55"/>
      <point x="237" y="-47" type="curve"/>
      <point x="261" y="0" type="line"/>
      <point x="195" y="0" type="line"/>
      <point x="147" y="-95" type="line"/>
      <point x="186" y="-95" type="line" smooth="yes"/>
      <point x="216" y="-95"/>
      <point x="235" y="-109"/>
      <point x="235" y="-131" type="curve" smooth="yes"/>
      <point x="235" y="-155"/>
      <point x="212" y="-171"/>
      <point x="179" y="-171" type="curve" smooth="yes"/>
      <point x="149" y="-171"/>
      <point x="123" y="-160"/>
      <point x="102" y="-138" type="curve"/>
      <point x="52" y="-184" type="line"/>
      <point x="83" y="-219"/>
      <point x="123" y="-235"/>
      <point x="176" y="-235" type="curve" smooth="yes"/>
      <point x="252" y="-235"/>
      <point x="313" y="-187"/>
    </contour>
  </outline>
</glyph>
<glyph name="Ccedilla" format="2">
  <advance width="708"/>
  <unicode hex="00C7"/>
  <outline>
    <contour>
      <point x="408" y="121" type="curve" smooth="yes"/>
      <point x="288" y="121"/>
      <point x="200" y="210"/>
      <point x="200" y="328" type="curve" smooth="yes"/>
      <point x="200" y="465"/>
      <point x="304" y="575"/>
      <point x="434" y="575" type="curve" smooth="yes"/>
      <point x="514" y="575"/>
      <point x="579" y="539"/>
      <point x="619" y="473" type="curve"/>
      <point x="729" y="567" type="line"/>
      <point x="669" y="658"/>
      <point x="569" y="708"/>
      <point x="442" y="708" type="curve" smooth="yes"/>
      <point x="228" y="708"/>
      <point x="54" y="534"/>
      <point x="54" y="321" type="curve" smooth="yes"/>
      <point x="54" y="151"/>
      <point x="175" y="15"/>
      <point x="340" y="-8" type="curve"/>
      <point x="296" y="-95" type="line"/>
      <point x="335" y="-95" type="line" smooth="yes"/>
      <point x="365" y="-95"/>
      <point x="384" y="-109"/>
      <point x="384" y="-131" type="curve" smooth="yes"/>
      <point x="384" y="-155"/>
      <point x="361" y="-171"/>
      <point x="328" y="-171" type="curve" smooth="yes"/>
      <point x="298" y="-171"/>
      <point x="272" y="-160"/>
      <point x="251" y="-138" type="curve"/>
      <point x="201" y="-184" type="line"/>
      <point x="232" y="-219"/>
      <point x="272" y="-235"/>
      <point x="325" y="-235" type="curve" smooth="yes"/>
      <point x="401" y="-235"/>
      <point x="462" y="-187"/>
      <point x="462" y="-127" type="curve" smooth="yes"/>
      <point x="462" y="-84"/>
      <point x="435" y="-55"/>
      <point x="386" y="-47" type="curve"/>
      <point x="404" y="-12" type="line"/>
      <point x="502" y="-8"/>
      <point x="605" y="37"/>
      <point x="676" y="107" type="curve"/>
      <point x="598" y="205" type="line"/>
      <point x="544" y="151"/>
      <point x="477" y="121"/>
    </contour>
  </outline>
</glyph>
<glyph name="multiply" format="2">
  <advance width="532"/>
  <unicode hex="00D7"/>
  <outline>
    <contour>
      <point x="95" y="139" type="line"/>
      <point x="275" y="291" type="line"/>
      <point x="388" y="141" type="line"/>
      <point x="464" y="203" type="line"/>
      <point x="350" y="354" type="line"/>
      <point x="530" y="507" type="line"/>
      <point x="477" y="576" type="line"/>
      <point x="297" y="424" type="line"/>
      <point x="182" y="576" type="line"/>
      <point x="107" y="513" type="line"/>
      <point x="222" y="360" type="line"/>
      <point x="42" y="207" type="line"/>
    </contour>
  </outline>
</glyph>
<glyph name="Oslash" format="2">
  <advance width="798"/>
  <unicode hex="00D8"/>
  <outline>
    <contour>
      <point x="127" y="0" type="line"/>
      <point x="183" y="55" type="line"/>
      <point x="240" y="13"/>
      <point x="312" y="-11"/>
      <point x="392" y="-11" type="curve"/>
      <point x="605" y="-11"/>
      <point x="781" y="165"/>
      <point x="781" y="380" type="curve" smooth="yes"/>
      <point x="781" y="457"/>
      <point x="757" y="525"/>
      <point x="717" y="580" type="curve"/>
      <point x="839" y="700" type="line"/>
      <point x="706" y="700" type="line"/>
      <point x="651" y="645" type="line"/>
      <point x="594" y="687"/>
      <point x="523" y="711"/>
      <point x="443" y="711" type="curve"/>
      <point x="230" y="711"/>
      <point x="54" y="535"/>
      <point x="54" y="320" type="curve" smooth="yes"/>
      <point x="54" y="244"/>
      <point x="77" y="175"/>
      <point x="118" y="121" type="curve"/>
      <point x="-5" y="0" type="line"/>
    </contour>
    <contour>
      <point x="199" y="329" type="curve" smooth="yes"/>
      <point x="199" y="466"/>
      <point x="304" y="578"/>
      <point x="434" y="578" type="curve"/>
      <point x="477" y="578"/>
      <point x="516" y="566"/>
      <point x="548" y="545" type="curve"/>
      <point x="224" y="225" type="line"/>
      <point x="208" y="255"/>
      <point x="199" y="291"/>
    </contour>
    <contour>
      <point x="636" y="371" type="curve" smooth="yes"/>
      <point x="636" y="234"/>
      <point x="531" y="122"/>
      <point x="401" y="122" type="curve"/>
      <point x="357" y="122"/>
      <point x="318" y="134"/>
      <point x="286" y="156" type="curve"/>
      <point x="611" y="476" type="line"/>
      <point x="627" y="445"/>
      <point x="636" y="410"/>
    </contour>
  </outline>
</glyph>
<glyph name="Thorn" format="2">
  <advance width="668"/>
  <unicode hex="00DE"/>
  <outline>
    <contour>
      <point x="8" y="0" type="line"/>
      <point x="149" y="0" type="line"/>
      <point x="177" y="133" type="line"/>
      <point x="378" y="133" type="line"/>
      <point x="522" y="133"/>
      <point x="632" y="238"/>
      <point x="632" y="375" type="curve" smooth="yes"/>
      <point x="632" y="491"/>
      <point x="548" y="569"/>
      <point x="423" y="569" type="curve"/>
      <point x="270" y="569" type="line"/>
      <point x="298" y="700" type="line"/>
      <point x="157" y="700" type="line"/>
    </contour>
    <contour>
      <point x="397" y="444" type="line"/>
      <point x="452" y="444"/>
      <point x="487" y="413"/>
      <point x="487" y="364" type="curve" smooth="yes"/>
      <point x="487" y="298"/>
      <point x="441" y="253"/>
      <point x="374" y="253" type="curve"/>
      <point x="203" y="253" type="line"/>
      <point x="244" y="444" type="line"/>
    </contour>
  </outline>
</glyph>
<glyph name="germandbls" format="2">
  <advance width="672"/>
  <unicode hex="00DF"/>
  <outline>
    <contour>
      <point x="434" y="351" type="curve" smooth="yes"/>
      <point x="434" y="416"/>
      <point x="648" y="413"/>
      <point x="648" y="571" type="curve" smooth="yes"/>
      <point x="648" y="668"/>
      <point x="542" y="739"/>
      <point x="396" y="739" type="curve" smooth="yes"/>
      <point x="242" y="739"/>
      <point x="138" y="655"/>
      <point x="106" y="505" type="curve" smooth="yes"/>
      <point x="-2" y="0" type="line"/>
      <point x="132" y="0" type="line"/>
      <point x="237" y="488" type="line" smooth="yes"/>
      <point x="257" y="581"/>
      <point x="310" y="629"/>
      <point x="394" y="629" type="curve" smooth="yes"/>
      <point x="461" y="629"/>
      <point x="514" y="595"/>
      <point x="514" y="553" type="curve" smooth="yes"/>
      <point x="514" y="464"/>
      <point x="308" y="473"/>
      <point x="308" y="335" type="curve" smooth="yes"/>
      <point x="308" y="290"/>
      <point x="333" y="257"/>
      <point x="387" y="231" type="curve" smooth="yes"/>
      <point x="463" y="195" type="line" smooth="yes"/>
      <point x="502" y="177"/>
      <point x="516" y="162"/>
      <point x="516" y="140" type="curve" smooth="yes"/>
      <point x="516" y="105"/>
      <point x="488" y="83"/>
      <point x="442" y="83" type="curve" smooth="yes"/>
      <point x="392" y="83"/>
      <point x="346" y="109"/>
      <point x="308" y="158" type="curve"/>
      <point x="227" y="92" type="line"/>
      <point x="278" y="25"/>
      <point x="357" y="-13"/>
      <point x="445" y="-13" type="curve" smooth="yes"/>
      <point x="557" y="-13"/>
      <point x="638" y="57"/>
      <point x="638" y="154" type="curve" smooth="yes"/>
      <point x="638" y="208"/>
      <point x="609" y="245"/>
      <point x="544" y="276" type="curve" smooth="yes"/>
      <point x="472" y="311" type="line" smooth="yes"/>
      <point x="445" y="324"/>
      <point x="434" y="335"/>
    </contour>
  </outline>
</glyph>
<glyph name="ae" format="2">
  <advance width="902"/>
  <unicode hex="00E6"/>
  <outline>
    <contour>
      <point x="212" y="-6" type="curve"/>
      <point x="286" y="-6"/>
      <point x="346" y="18"/>
      <point x="414" y="73" type="curve"/>
      <point x="461" y="21"/>
      <point x="533" y="-11"/>
      <point x="618" y="-11" type="curve" smooth="yes"/>
      <point x="693" y="-11"/>
      <point x="752" y="9"/>
      <point x="816" y="54" type="curve"/>
      <point x="741" y="141" type="line"/>
      <point x="712" y="117"/>
      <point x="672" y="103"/>
      <point x="628" y="103" type="curve" smooth="yes"/>
      <point x="554" y="103"/>
      <point x="499" y="148"/>
      <point x="487" y="215" type="curve"/>
      <point x="867" y="215" type="line"/>
      <point x="871" y="251"/>
      <point x="872" y="263"/>
      <point x="872" y="278" type="curve" smooth="yes"/>
      <point x="872" y="424"/>
      <point x="774" y="529"/>
      <point x="636" y="529" type="curve" smooth="yes"/>
      <point x="574" y="529"/>
      <point x="513" y="505"/>
      <point x="464" y="462" type="curve"/>
      <point x="432" y="505"/>
      <point x="373" y="530"/>
      <point x="294" y="530" type="curve" smooth="yes"/>
      <point x="230" y="530"/>
      <point x="163" y="516"/>
      <point x="83" y="486" type="curve"/>
      <point x="116" y="383" type="line"/>
      <point x="182" y="407"/>
      <point x="223" y="417"/>
      <point x="260" y="417" type="curve" smooth="yes"/>
      <point x="341" y="417"/>
      <point x="379" y="381"/>
      <point x="366" y="317" type="curve" smooth="yes"/>
      <point x="360" y="290" type="line"/>
      <point x="319" y="304"/>
      <point x="274" y="311"/>
      <point x="230" y="311" type="curve" smooth="yes"/>
      <point x="100" y="311"/>
      <point x="20" y="248"/>
      <point x="20" y="144" type="curve" smooth="yes"/>
      <point x="20" y="53"/>
      <point x="95" y="-6"/>
    </contour>
    <contour>
      <point x="630" y="415" type="curve" smooth="yes"/>
      <point x="689" y="415"/>
      <point x="734" y="374"/>
      <point x="746" y="312" type="curve"/>
      <point x="496" y="312" type="line"/>
      <point x="518" y="373"/>
      <point x="569" y="415"/>
    </contour>
    <contour>
      <point x="146" y="154" type="curve" smooth="yes"/>
      <point x="146" y="193"/>
      <point x="185" y="220"/>
      <point x="243" y="220" type="curve" smooth="yes"/>
      <point x="282" y="220"/>
      <point x="326" y="212"/>
      <point x="358" y="199" type="curve"/>
      <point x="360" y="178"/>
      <point x="366" y="157"/>
      <point x="373" y="139" type="curve"/>
      <point x="331" y="107"/>
      <point x="286" y="91"/>
      <point x="238" y="91" type="curve"/>
      <point x="182" y="91"/>
      <point x="146" y="116"/>
    </contour>
  </outline>
</glyph>
<glyph name="ccedilla" format="2">
  <advance width="520"/>
  <unicode hex="00E7"/>
  <outline>
    <contour>
      <point x="289" y="108" type="curve" smooth="yes"/>
      <point x="214" y="108"/>
      <point x="161" y="163"/>
      <point x="161" y="241" type="curve" smooth="yes"/>
      <point x="161" y="334"/>
      <point x="230" y="410"/>
      <point x="313" y="410" type="curve" smooth="yes"/>
      <point x="364" y="410"/>
      <point x="405" y="388"/>
      <point x="436" y="341" type="curve"/>
      <point x="529" y="425" type="line"/>
      <point x="483" y="490"/>
      <point x="402" y="530"/>
      <point x="315" y="530" type="curve" smooth="yes"/>
      <point x="156" y="530"/>
      <point x="27" y="398"/>
      <point x="27" y="234" type="curve" smooth="yes"/>
      <point x="27" y="106"/>
      <point x="114" y="9"/>
      <point x="236" y="-8" type="curve"/>
      <point x="193" y="-93" type="line"/>
      <point x="232" y="-93" type="line" smooth="yes"/>
      <point x="262" y="-93"/>
      <point x="281" y="-107"/>
      <point x="281" y="-129" type="curve" smooth="yes"/>
      <point x="281" y="-153"/>
      <point x="258" y="-169"/>
      <point x="225" y="-169" type="curve" smooth="yes"/>
      <point x="195" y="-169"/>
      <point x="169" y="-158"/>
      <point x="148" y="-136" type="curve"/>
      <point x="98" y="-182" type="line"/>
      <point x="129" y="-217"/>
      <point x="169" y="-233"/>
      <point x="222" y="-233" type="curve" smooth="yes"/>
      <point x="298" y="-233"/>
      <point x="359" y="-185"/>
      <point x="359" y="-125" type="curve" smooth="yes"/>
      <point x="359" y="-82"/>
      <point x="332" y="-53"/>
      <point x="283" y="-45" type="curve"/>
      <point x="301" y="-10" type="line"/>
      <point x="366" y="-4"/>
      <point x="426" y="23"/>
      <point x="478" y="70" type="curve"/>
      <point x="409" y="160" type="line"/>
      <point x="370" y="125"/>
      <point x="332" y="108"/>
    </contour>
  </outline>
</glyph>
<glyph name="eth" format="2">
  <advance width="582"/>
  <unicode hex="00F0"/>
  <outline>
    <contour>
      <point x="296" y="517" type="line"/>
      <point x="391" y="563" type="line"/>
      <point x="420" y="520"/>
      <point x="437" y="472"/>
      <point x="440" y="424" type="curve"/>
      <point x="408" y="464"/>
      <point x="358" y="486"/>
      <point x="295" y="486" type="curve" smooth="yes"/>
      <point x="150" y="486"/>
      <point x="30" y="367"/>
      <point x="30" y="224" type="curve" smooth="yes"/>
      <point x="30" y="86"/>
      <point x="127" y="-9"/>
      <point x="267" y="-9" type="curve" smooth="yes"/>
      <point x="441" y="-9"/>
      <point x="570" y="153"/>
      <point x="570" y="372" type="curve" smooth="yes"/>
      <point x="570" y="466"/>
      <point x="548" y="548"/>
      <point x="504" y="618" type="curve"/>
      <point x="594" y="661" type="line"/>
      <point x="558" y="737" type="line"/>
      <point x="451" y="685" type="line"/>
      <point x="423" y="714"/>
      <point x="390" y="740"/>
      <point x="352" y="763" type="curve"/>
      <point x="265" y="679" type="line"/>
      <point x="291" y="665"/>
      <point x="314" y="648"/>
      <point x="335" y="629" type="curve"/>
      <point x="261" y="593" type="line"/>
    </contour>
    <contour>
      <point x="271" y="112" type="curve" smooth="yes"/>
      <point x="206" y="112"/>
      <point x="157" y="161"/>
      <point x="157" y="227" type="curve" smooth="yes"/>
      <point x="157" y="305"/>
      <point x="223" y="372"/>
      <point x="299" y="372" type="curve" smooth="yes"/>
      <point x="363" y="372"/>
      <point x="412" y="322"/>
      <point x="412" y="257" type="curve" smooth="yes"/>
      <point x="412" y="179"/>
      <point x="346" y="112"/>
    </contour>
  </outline>
</glyph>
<glyph name="divide" format="2">
  <advance width="539"/>
  <unicode hex="00F7"/>
  <outline>
    <contour>
      <point x="328" y="499" type="curve"/>
      <point x="376" y="499"/>
      <point x="417" y="542"/>
      <point x="417" y="589" type="curve" smooth="yes"/>
      <point x="417" y="630"/>
      <point x="387" y="660"/>
      <point x="347" y="660" type="curve"/>
      <point x="297" y="660"/>
      <point x="257" y="618"/>
      <point x="257" y="570" type="curve" smooth="yes"/>
      <point x="257" y="530"/>
      <point x="287" y="499"/>
    </contour>
    <contour>
      <point x="55" y="306" type="line"/>
      <point x="503" y="306" type="line"/>
      <point x="526" y="412" type="line"/>
      <point x="77" y="412" type="line"/>
    </contour>
    <contour>
      <point x="235" y="58" type="curve"/>
      <point x="283" y="58"/>
      <point x="324" y="101"/>
      <point x="324" y="148" type="curve" smooth="yes"/>
      <point x="324" y="188"/>
      <point x="295" y="219"/>
      <point x="254" y="219" type="curve"/>
      <point x="204" y="219"/>
      <point x="164" y="176"/>
      <point x="164" y="128" type="curve" smooth="yes"/>
      <point x="164" y="88"/>
      <point x="194" y="58"/>
    </contour>
  </outline>
</glyph>
<glyph name="oslash" format="2">
  <advance width="607"/>
  <unicode hex="00F8"/>
  <outline>
    <contour>
      <point x="-9" y="0" type="line"/>
      <point x="91" y="0" type="line"/>
      <point x="130" y="39" type="line"/>
      <point x="173" y="8"/>
      <point x="226" y="-10"/>
      <point x="286" y="-10" type="curve" smooth="yes"/>
      <point x="444" y="-10"/>
      <point x="577" y="123"/>
      <point x="577" y="281" type="curve"/>
      <point x="577" y="339"/>
      <point x="559" y="392"/>
      <point x="527" y="433" type="curve"/>
      <point x="615" y="521" type="line"/>
      <point x="514" y="521" type="line"/>
      <point x="476" y="483" type="line"/>
      <point x="433" y="513"/>
      <point x="380" y="531"/>
      <point x="321" y="531" type="curve" smooth="yes"/>
      <point x="162" y="531"/>
      <point x="30" y="399"/>
      <point x="30" y="241" type="curve"/>
      <point x="30" y="183"/>
      <point x="48" y="130"/>
      <point x="80" y="89" type="curve"/>
    </contour>
    <contour>
      <point x="162" y="247" type="curve"/>
      <point x="162" y="337"/>
      <point x="230" y="412"/>
      <point x="314" y="412" type="curve" smooth="yes"/>
      <point x="341" y="412"/>
      <point x="365" y="405"/>
      <point x="385" y="392" type="curve"/>
      <point x="175" y="183" type="line"/>
      <point x="167" y="202"/>
      <point x="162" y="224"/>
    </contour>
    <contour>
      <point x="292" y="109" type="curve" smooth="yes"/>
      <point x="265" y="109"/>
      <point x="241" y="116"/>
      <point x="221" y="129" type="curve"/>
      <point x="431" y="339" type="line"/>
      <point x="440" y="320"/>
      <point x="445" y="298"/>
      <point x="445" y="275" type="curve"/>
      <point x="445" y="184"/>
      <point x="376" y="109"/>
    </contour>
  </outline>
</glyph>
<glyph name="Dcroat" format="2">
  <advance width="747"/>
  <unicode hex="0110"/>
  <outline>
    <contour>
      <point x="31" y="0" type="line"/>
      <point x="329" y="0" type="line" smooth="yes"/>
      <point x="549" y="0"/>
      <point x="733" y="177"/>
      <point x="733" y="388" type="curve" smooth="yes"/>
      <point x="733" y="569"/>
      <point x="597" y="700"/>
      <point x="409" y="700" type="curve" smooth="yes"/>
      <point x="180" y="700" type="line"/>
      <point x="118" y="408" type="line"/>
      <point x="40" y="408" type="line"/>
      <point x="16" y="293" type="line"/>
      <point x="93" y="293" type="line"/>
    </contour>
    <contour>
      <point x="393" y="571" type="line" smooth="yes"/>
      <point x="505" y="571"/>
      <point x="585" y="491"/>
      <point x="585" y="378" type="curve" smooth="yes"/>
      <point x="585" y="239"/>
      <point x="476" y="129"/>
      <point x="341" y="129" type="curve" smooth="yes"/>
      <point x="200" y="129" type="line"/>
      <point x="235" y="293" type="line"/>
      <point x="403" y="293" type="line"/>
      <point x="427" y="408" type="line"/>
      <point x="260" y="408" type="line"/>
      <point x="295" y="571" type="line"/>
    </contour>
  </outline>
</glyph>
<glyph name="dcroat" format="2">
  <advance width="617"/>
  <unicode hex="0111"/>
  <outline>
    <contour>
      <point x="378" y="0" type="line"/>
      <point x="511" y="0" type="line"/>
      <point x="634" y="579" type="line"/>
      <point x="686" y="579" type="line"/>
      <point x="704" y="663" type="line"/>
      <point x="652" y="663" type="line"/>
      <point x="666" y="730" type="line"/>
      <point x="525" y="700" type="line"/>
      <point x="517" y="663" type="line"/>
      <point x="383" y="663" type="line"/>
      <point x="365" y="579" type="line"/>
      <point x="499" y="579" type="line"/>
      <point x="477" y="474" type="line"/>
      <point x="436" y="509"/>
      <point x="382" y="528"/>
      <point x="320" y="528" type="curve" smooth="yes"/>
      <point x="160" y="528"/>
      <point x="30" y="397"/>
      <point x="30" y="234" type="curve" smooth="yes"/>
      <point x="30" y="97"/>
      <point x="131" y="-7"/>
      <point x="262" y="-7" type="curve" smooth="yes"/>
      <point x="305" y="-7"/>
      <point x="346" y="4"/>
      <point x="384" y="26" type="curve"/>
    </contour>
    <contour>
      <point x="162" y="246" type="curve" smooth="yes"/>
      <point x="162" y="338"/>
      <point x="234" y="411"/>
      <point x="325" y="411" type="curve" smooth="yes"/>
      <point x="377" y="411"/>
      <point x="424" y="390"/>
      <point x="452" y="356" type="curve"/>
      <point x="408" y="149" type="line"/>
      <point x="377" y="123"/>
      <point x="339" y="109"/>
      <point x="298" y="109" type="curve" smooth="yes"/>
      <point x="220" y="109"/>
      <point x="162" y="167"/>
    </contour>
  </outline>
</glyph>
<glyph name="Eogonek" format="2">
  <advance width="634"/>
  <unicode hex="0118"/>
  <outline>
    <contour>
      <point x="7" y="0" type="line"/>
      <point x="460" y="0" type="line"/>
      <point x="382" y="-45"/>
      <point x="343" y="-94"/>
      <point x="343" y="-148" type="curve" smooth="yes"/>
      <point x="343" y="-193"/>
      <point x="377" y="-221"/>
      <point x="431" y="-221" type="curve" smooth="yes"/>
      <point x="459" y="-221"/>
      <point x="489" y="-214"/>
      <point x="514" y="-200" type="curve"/>
      <point x="508" y="-139" type="line"/>
      <point x="496" y="-146"/>
      <point x="481" y="-150"/>
      <point x="468" y="-150" type="curve" smooth="yes"/>
      <point x="442" y="-150"/>
      <point x="426" y="-137"/>
      <point x="426" y="-115" type="curve" smooth="yes"/>
      <point x="426" y="-77"/>
      <point x="462" y="-40"/>
      <point x="538" y="0" type="curve"/>
      <point x="565" y="126" type="line"/>
      <point x="176" y="126" type="line"/>
      <point x="211" y="292" type="line"/>
      <point x="464" y="292" type="line"/>
      <point x="490" y="414" type="line"/>
      <point x="237" y="414" type="line"/>
      <point x="271" y="574" type="line"/>
      <point x="656" y="574" type="line"/>
      <point x="683" y="700" type="line"/>
      <point x="156" y="700" type="line"/>
    </contour>
  </outline>
</glyph>
<glyph name="eogonek" format="2">
  <advance width="576"/>
  <unicode hex="0119"/>
  <outline>
    <contour>
      <point x="353" y="-200" type="curve"/>
      <point x="347" y="-139" type="line"/>
      <point x="335" y="-146"/>
      <point x="320" y="-150"/>
      <point x="307" y="-150" type="curve" smooth="yes"/>
      <point x="281" y="-150"/>
      <point x="265" y="-137"/>
      <point x="265" y="-115" type="curve" smooth="yes"/>
      <point x="265" y="-77"/>
      <point x="300" y="-41"/>
      <point x="374" y="-1" type="curve"/>
      <point x="414" y="9"/>
      <point x="451" y="27"/>
      <point x="490" y="54" type="curve"/>
      <point x="415" y="141" type="line"/>
      <point x="385" y="117"/>
      <point x="346" y="103"/>
      <point x="302" y="103" type="curve" smooth="yes"/>
      <point x="228" y="103"/>
      <point x="173" y="148"/>
      <point x="161" y="215" type="curve"/>
      <point x="541" y="215" type="line"/>
      <point x="545" y="251"/>
      <point x="546" y="263"/>
      <point x="546" y="278" type="curve" smooth="yes"/>
      <point x="546" y="424"/>
      <point x="448" y="529"/>
      <point x="310" y="529" type="curve" smooth="yes"/>
      <point x="155" y="529"/>
      <point x="28" y="397"/>
      <point x="28" y="238" type="curve" smooth="yes"/>
      <point x="28" y="97"/>
      <point x="133" y="-6"/>
      <point x="281" y="-11" type="curve"/>
      <point x="215" y="-53"/>
      <point x="182" y="-98"/>
      <point x="182" y="-148" type="curve" smooth="yes"/>
      <point x="182" y="-193"/>
      <point x="216" y="-221"/>
      <point x="270" y="-221" type="curve" smooth="yes"/>
      <point x="298" y="-221"/>
      <point x="328" y="-214"/>
    </contour>
    <contour>
      <point x="303" y="415" type="curve" smooth="yes"/>
      <point x="363" y="415"/>
      <point x="408" y="374"/>
      <point x="420" y="312" type="curve"/>
      <point x="170" y="312" type="line"/>
      <point x="192" y="373"/>
      <point x="243" y="415"/>
    </contour>
  </outline>
</glyph>
<glyph name="hcircumflex" format="2">
  <advance width="582"/>
  <unicode hex="0125"/>
  <outline>
    <contour>
      <point x="304" y="784" type="line"/>
      <point x="410" y="784" type="line"/>
      <point x="326" y="920" type="line"/>
      <point x="189" y="920" type="line"/>
      <point x="47" y="784" type="line"/>
      <point x="160" y="784" type="line"/>
      <point x="248" y="858" type="line"/>
    </contour>
    <contour>
      <point x="-2" y="0" type="line"/>
      <point x="132" y="0" type="line"/>
      <point x="209" y="365" type="line"/>
      <point x="239" y="397"/>
      <point x="277" y="413"/>
      <point x="319" y="413" type="curve" smooth="yes"/>
      <point x="385" y="413"/>
      <point x="421" y="367"/>
      <point x="407" y="298" type="curve" smooth="yes"/>
      <point x="343" y="0" type="line"/>
      <point x="478" y="0" type="line"/>
      <point x="544" y="311" type="line" smooth="yes"/>
      <point x="570" y="437"/>
      <point x="500" y="529"/>
      <point x="376" y="529" type="curve" smooth="yes"/>
      <point x="324" y="529"/>
      <point x="276" y="513"/>
      <point x="234" y="484" type="curve"/>
      <point x="280" y="700" type="line"/>
      <point x="147" y="700" type="line"/>
    </contour>
  </outline>
</glyph>
<glyph name="Iogonek" format="2">
  <advance width="266"/>
  <unicode hex="012E"/>
  <outline>
    <contour>
      <point x="7" y="0" type="line"/>
      <point x="70" y="0" type="line"/>
      <point x="-8" y="-45"/>
      <point x="-47" y="-94"/>
      <point x="-47" y="-148" type="curve" smooth="yes"/>
      <point x="-47" y="-193"/>
      <point x="-13" y="-221"/>
      <point x="41" y="-221" type="curve" smooth="yes"/>
      <point x="69" y="-221"/>
      <point x="99" y="-214"/>
      <point x="124" y="-200" type="curve"/>
      <point x="118" y="-139" type="line"/>
      <point x="106" y="-146"/>
      <point x="91" y="-150"/>
      <point x="78" y="-150" type="curve" smooth="yes"/>
      <point x="52" y="-150"/>
      <point x="36" y="-137"/>
      <point x="36" y="-115" type="curve" smooth="yes"/>
      <point x="36" y="-77"/>
      <point x="72" y="-40"/>
      <point x="148" y="0" type="curve"/>
      <point x="149" y="0" type="line"/>
      <point x="298" y="700" type="line"/>
      <point x="156" y="700" type="line"/>
    </contour>
  </outline>
</glyph>
<glyph name="kgreenlandic" format="2">
  <advance width="557"/>
  <unicode hex="0138"/>
  <anchor x="229" y="0" name="bottom"/>
  <outline>
    <contour>
      <point x="-2" y="0" type="line"/>
      <point x="132" y="0" type="line"/>
      <point x="181" y="230" type="line"/>
      <point x="355" y="0" type="line"/>
      <point x="517" y="0" type="line"/>
      <point x="312" y="260" type="line"/>
      <point x="619" y="521" type="line"/>
      <point x="453" y="521" type="line"/>
      <point x="194" y="295" type="line"/>
      <point x="242" y="521" type="line"/>
      <point x="109" y="521" type="line"/>
    </contour>
  </outline>
</glyph>
<glyph name="lacute" format="2">
  <advance width="240"/>
  <unicode hex="013A"/>
  <outline>
    <contour>
      <point x="279" y="917" type="line"/>
      <point x="162" y="787" type="line"/>
      <point x="274" y="787" type="line"/>
      <point x="434" y="917" type="line"/>
    </contour>
    <contour>
      <point x="-2" y="0" type="line"/>
      <point x="132" y="0" type="line"/>
      <point x="280" y="700" type="line"/>
      <point x="147" y="700" type="line"/>
    </contour>
  </outline>
</glyph>
<glyph name="Lslash" format="2">
  <advance width="647"/>
  <unicode hex="0141"/>
  <outline>
    <contour>
      <point x="33" y="0" type="line"/>
      <point x="550" y="0" type="line"/>
      <point x="577" y="128" type="line"/>
      <point x="202" y="128" type="line"/>
      <point x="239" y="298" type="line"/>
      <point x="441" y="412" type="line"/>
      <point x="467" y="535" type="line"/>
      <point x="265" y="422" type="line"/>
      <point x="324" y="700" type="line"/>
      <point x="182" y="700" type="line"/>
      <point x="103" y="331" type="line"/>
      <point x="16" y="282" type="line"/>
      <point x="-10" y="159" type="line"/>
      <point x="77" y="208" type="line"/>
    </contour>
  </outline>
</glyph>
<glyph name="lslash" format="2">
  <advance width="283"/>
  <unicode hex="0142"/>
  <outline>
    <contour>
      <point x="25" y="334" type="line"/>
      <point x="-2" y="209" type="line"/>
      <point x="77" y="258" type="line"/>
      <point x="22" y="0" type="line"/>
      <point x="156" y="0" type="line"/>
      <point x="231" y="355" type="line"/>
      <point x="311" y="405" type="line"/>
      <point x="338" y="530" type="line"/>
      <point x="258" y="480" type="line"/>
      <point x="311" y="730" type="line"/>
      <point x="171" y="700" type="line"/>
      <point x="104" y="383" type="line"/>
    </contour>
  </outline>
</glyph>
<glyph name="Eng" format="2">
  <advance width="734"/>
  <unicode hex="014A"/>
  <outline>
    <contour>
      <point x="485" y="12" type="line"/>
      <point x="471" y="-54" type="line"/>
      <point x="464" y="-88"/>
      <point x="445" y="-104"/>
      <point x="411" y="-104" type="curve" smooth="yes"/>
      <point x="388" y="-104"/>
      <point x="374" y="-101"/>
      <point x="360" y="-98" type="curve"/>
      <point x="338" y="-202" type="line"/>
      <point x="355" y="-208"/>
      <point x="390" y="-215"/>
      <point x="419" y="-215" type="curve" smooth="yes"/>
      <point x="515" y="-215"/>
      <point x="581" y="-162"/>
      <point x="601" y="-68" type="curve"/>
      <point x="765" y="700" type="line"/>
      <point x="631" y="700" type="line"/>
      <point x="533" y="240" type="line"/>
      <point x="291" y="700" type="line"/>
      <point x="156" y="700" type="line"/>
      <point x="7" y="0" type="line"/>
      <point x="141" y="0" type="line"/>
      <point x="242" y="475" type="line"/>
    </contour>
  </outline>
</glyph>
<glyph name="OE" format="2">
  <advance width="1093"/>
  <unicode hex="0152"/>
  <outline>
    <contour>
      <point x="387" y="0" type="curve"/>
      <point x="997" y="0" type="line"/>
      <point x="1023" y="126" type="line"/>
      <point x="669" y="126" type="line"/>
      <point x="712" y="173"/>
      <point x="744" y="230"/>
      <point x="759" y="292" type="curve"/>
      <point x="935" y="292" type="line"/>
      <point x="961" y="414" type="line"/>
      <point x="768" y="414" type="line"/>
      <point x="762" y="474"/>
      <point x="739" y="529"/>
      <point x="703" y="574" type="curve"/>
      <point x="1119" y="574" type="line"/>
      <point x="1145" y="700" type="line"/>
      <point x="465" y="700" type="line"/>
      <point x="456" y="701"/>
      <point x="448" y="701"/>
      <point x="439" y="701" type="curve"/>
      <point x="229" y="701"/>
      <point x="53" y="528"/>
      <point x="53" y="321" type="curve" smooth="yes"/>
      <point x="53" y="138"/>
      <point x="197" y="0"/>
    </contour>
    <contour>
      <point x="396" y="132" type="curve"/>
      <point x="283" y="132"/>
      <point x="200" y="215"/>
      <point x="200" y="329" type="curve" smooth="yes"/>
      <point x="200" y="459"/>
      <point x="304" y="568"/>
      <point x="429" y="568" type="curve"/>
      <point x="541" y="568"/>
      <point x="623" y="484"/>
      <point x="623" y="372" type="curve" smooth="yes"/>
      <point x="623" y="241"/>
      <point x="521" y="132"/>
    </contour>
  </outline>
</glyph>
<glyph name="oe" format="2">
  <advance width="994"/>
  <unicode hex="0153"/>
  <outline>
    <contour>
      <point x="30" y="241" type="curve"/>
      <point x="30" y="98"/>
      <point x="140" y="-10"/>
      <point x="286" y="-10" type="curve" smooth="yes"/>
      <point x="370" y="-10"/>
      <point x="447" y="29"/>
      <point x="499" y="90" type="curve"/>
      <point x="544" y="28"/>
      <point x="619" y="-11"/>
      <point x="709" y="-11" type="curve" smooth="yes"/>
      <point x="784" y="-11"/>
      <point x="844" y="9"/>
      <point x="908" y="54" type="curve"/>
      <point x="833" y="141" type="line"/>
      <point x="803" y="117"/>
      <point x="764" y="103"/>
      <point x="720" y="103" type="curve" smooth="yes"/>
      <point x="645" y="103"/>
      <point x="591" y="148"/>
      <point x="579" y="215" type="curve"/>
      <point x="958" y="215" type="line"/>
      <point x="963" y="251"/>
      <point x="964" y="263"/>
      <point x="964" y="278" type="curve" smooth="yes"/>
      <point x="964" y="424"/>
      <point x="866" y="529"/>
      <point x="728" y="529" type="curve" smooth="yes"/>
      <point x="647" y="529"/>
      <point x="573" y="491"/>
      <point x="523" y="431" type="curve"/>
      <point x="478" y="492"/>
      <point x="406" y="531"/>
      <point x="321" y="531" type="curve" smooth="yes"/>
      <point x="162" y="531"/>
      <point x="30" y="399"/>
    </contour>
    <contour>
      <point x="721" y="415" type="curve" smooth="yes"/>
      <point x="781" y="415"/>
      <point x="826" y="374"/>
      <point x="838" y="312" type="curve"/>
      <point x="588" y="312" type="line"/>
      <point x="610" y="373"/>
      <point x="661" y="415"/>
    </contour>
    <contour>
      <point x="292" y="109" type="curve" smooth="yes"/>
      <point x="217" y="109"/>
      <point x="162" y="167"/>
      <point x="162" y="247" type="curve"/>
      <point x="162" y="337"/>
      <point x="230" y="412"/>
      <point x="314" y="412" type="curve" smooth="yes"/>
      <point x="390" y="412"/>
      <point x="445" y="354"/>
      <point x="445" y="275" type="curve"/>
      <point x="445" y="184"/>
      <point x="376" y="109"/>
    </contour>
  </outline>
</glyph>
<glyph name="Tcedilla" format="2">
  <advance width="639"/>
  <unicode hex="0162"/>
  <outline>
    <contour>
      <point x="83" y="572" type="line"/>
      <point x="315" y="572" type="line"/>
      <point x="193" y="0" type="line"/>
      <point x="235" y="0" type="line"/>
      <point x="187" y="-95" type="line"/>
      <point x="226" y="-95" type="line" smooth="yes"/>
      <point x="256" y="-95"/>
      <point x="275" y="-109"/>
      <point x="275" y="-131" type="curve" smooth="yes"/>
      <point x="275" y="-155"/>
      <point x="252" y="-171"/>
      <point x="219" y="-171" type="curve" smooth="yes"/>
      <point x="189" y="-171"/>
      <point x="163" y="-160"/>
      <point x="142" y="-138" type="curve"/>
      <point x="92" y="-184" type="line"/>
      <point x="123" y="-219"/>
      <point x="163" y="-235"/>
      <point x="216" y="-235" type="curve" smooth="yes"/>
      <point x="292" y="-235"/>
      <point x="353" y="-187"/>
      <point x="353" y="-127" type="curve" smooth="yes"/>
      <point x="353" y="-84"/>
      <point x="326" y="-55"/>
      <point x="277" y="-47" type="curve"/>
      <point x="301" y="0" type="line"/>
      <point x="335" y="0" type="line"/>
      <point x="457" y="572" type="line"/>
      <point x="687" y="572" type="line"/>
      <point x="715" y="700" type="line"/>
      <point x="111" y="700" type="line"/>
    </contour>
  </outline>
</glyph>
<glyph name="Uogonek" format="2">
  <advance width="710"/>
  <unicode hex="0172"/>
  <outline>
    <contour>
      <point x="414" y="0" type="curve"/>
      <point x="413" y="0" type="line"/>
      <point x="540" y="30"/>
      <point x="630" y="128"/>
      <point x="662" y="278" type="curve" smooth="yes"/>
      <point x="752" y="700" type="line"/>
      <point x="611" y="700" type="line"/>
      <point x="524" y="291" type="line" smooth="yes"/>
      <point x="503" y="189"/>
      <point x="430" y="124"/>
      <point x="339" y="124" type="curve" smooth="yes"/>
      <point x="235" y="124"/>
      <point x="181" y="200"/>
      <point x="205" y="314" type="curve" smooth="yes"/>
      <point x="287" y="700" type="line"/>
      <point x="145" y="700" type="line"/>
      <point x="66" y="328" type="line" smooth="yes"/>
      <point x="24" y="131"/>
      <point x="127" y="-5"/>
      <point x="321" y="-9" type="curve"/>
      <point x="253" y="-51"/>
      <point x="219" y="-97"/>
      <point x="219" y="-148" type="curve" smooth="yes"/>
      <point x="219" y="-193"/>
      <point x="253" y="-221"/>
      <point x="307" y="-221" type="curve" smooth="yes"/>
      <point x="335" y="-221"/>
      <point x="365" y="-214"/>
      <point x="390" y="-200" type="curve"/>
      <point x="384" y="-139" type="line"/>
      <point x="372" y="-146"/>
      <point x="357" y="-150"/>
      <point x="344" y="-150" type="curve" smooth="yes"/>
      <point x="318" y="-150"/>
      <point x="302" y="-137"/>
      <point x="302" y="-115" type="curve" smooth="yes"/>
      <point x="302" y="-77"/>
      <point x="338" y="-40"/>
    </contour>
  </outline>
</glyph>
<glyph name="uogonek" format="2">
  <advance width="582"/>
  <unicode hex="0173"/>
  <outline>
    <contour>
      <point x="473" y="0" type="curve"/>
      <point x="584" y="521" type="line"/>
      <point x="449" y="521" type="line"/>
      <point x="372" y="155" type="line"/>
      <point x="341" y="125"/>
      <point x="305" y="108"/>
      <point x="263" y="108" type="curve" smooth="yes"/>
      <point x="196" y="108"/>
      <point x="160" y="154"/>
      <point x="175" y="223" type="curve" smooth="yes"/>
      <point x="238" y="521" type="line"/>
      <point x="104" y="521" type="line"/>
      <point x="38" y="210" type="line" smooth="yes"/>
      <point x="11" y="84"/>
      <point x="81" y="-8"/>
      <point x="205" y="-8" type="curve" smooth="yes"/>
      <point x="257" y="-8"/>
      <point x="305" y="8"/>
      <point x="347" y="37" type="curve"/>
      <point x="339" y="0" type="line"/>
      <point x="395" y="0" type="line"/>
      <point x="317" y="-45"/>
      <point x="278" y="-94"/>
      <point x="278" y="-148" type="curve" smooth="yes"/>
      <point x="278" y="-193"/>
      <point x="312" y="-221"/>
      <point x="366" y="-221" type="curve" smooth="yes"/>
      <point x="394" y="-221"/>
      <point x="424" y="-214"/>
      <point x="449" y="-200" type="curve"/>
      <point x="443" y="-139" type="line"/>
      <point x="431" y="-146"/>
      <point x="416" y="-150"/>
      <point x="403" y="-150" type="curve" smooth="yes"/>
      <point x="377" y="-150"/>
      <point x="361" y="-137"/>
      <point x="361" y="-115" type="curve" smooth="yes"/>
      <point x="361" y="-77"/>
      <point x="397" y="-40"/>
    </contour>
  </outline>
</glyph>
<glyph name="circumflex" format="2">
  <advance width="507"/>
  <unicode hex="02C6"/>
  <anchor x="310" y="521" name="_top"/>
  <outline>
    <contour>
      <point x="403" y="605" type="line"/>
      <point x="509" y="605" type="line"/>
      <point x="425" y="741" type="line"/>
      <point x="288" y="741" type="line"/>
      <point x="146" y="605" type="line"/>
      <point x="259" y="605" type="line"/>
      <point x="347" y="679" type="line"/>
    </contour>
  </outline>
</glyph>
<glyph name="caron" format="2">
  <advance width="507"/>
  <unicode hex="02C7"/>
  <anchor x="309" y="521" name="_top"/>
  <outline>
    <contour>
      <point x="280" y="741" type="line"/>
      <point x="174" y="741" type="line"/>
      <point x="258" y="606" type="line"/>
      <point x="396" y="606" type="line"/>
      <point x="537" y="741" type="line"/>
      <point x="424" y="741" type="line"/>
      <point x="337" y="668" type="line"/>
    </contour>
  </outline>
</glyph>
<glyph name="ogonek" format="2">
  <advance width="507"/>
  <unicode hex="02DB"/>
  <anchor x="265" y="0" name="_bottom"/>
  <outline>
    <contour>
      <point x="265" y="0" type="curve"/>
      <point x="226" y="21" type="line"/>
      <point x="122" y="-30"/>
      <point x="70" y="-85"/>
      <point x="70" y="-148" type="curve" smooth="yes"/>
      <point x="70" y="-193"/>
      <point x="104" y="-221"/>
      <point x="158" y="-221" type="curve" smooth="yes"/>
      <point x="186" y="-221"/>
      <point x="216" y="-214"/>
      <point x="241" y="-200" type="curve"/>
      <point x="235" y="-139" type="line"/>
      <point x="223" y="-146"/>
      <point x="208" y="-150"/>
      <point x="195" y="-150" type="curve" smooth="yes"/>
      <point x="169" y="-150"/>
      <point x="153" y="-137"/>
      <point x="153" y="-115" type="curve" smooth="yes"/>
      <point x="153" y="-77"/>
      <point x="189" y="-40"/>
    </contour>
  </outline>
</glyph>
<glyph name="tilde" format="2">
  <advance width="507"/>
  <unicode hex="02DC"/>
  <anchor x="305" y="521" name="_top"/>
  <outline>
    <contour>
      <point x="219" y="601" type="line"/>
      <point x="235" y="638"/>
      <point x="249" y="654"/>
      <point x="267" y="654" type="curve" smooth="yes"/>
      <point x="309" y="654"/>
      <point x="351" y="595"/>
      <point x="414" y="595" type="curve" smooth="yes"/>
      <point x="465" y="595"/>
      <point x="505" y="632"/>
      <point x="537" y="709" type="curve"/>
      <point x="460" y="735" type="line"/>
      <point x="441" y="695"/>
      <point x="430" y="682"/>
      <point x="411" y="682" type="curve" smooth="yes"/>
      <point x="373" y="682"/>
      <point x="324" y="742"/>
      <point x="264" y="742" type="curve" smooth="yes"/>
      <point x="214" y="742"/>
      <point x="175" y="705"/>
      <point x="141" y="628" type="curve"/>
    </contour>
  </outline>
</glyph>
<glyph name="bullet" format="2">
  <advance width="348"/>
  <unicode hex="2022"/>
  <outline>
    <contour>
      <point x="176" y="217" type="curve"/>
      <point x="244" y="217"/>
      <point x="305" y="277"/>
      <point x="305" y="346" type="curve" smooth="yes"/>
      <point x="305" y="404"/>
      <point x="262" y="447"/>
      <point x="204" y="447" type="curve"/>
      <point x="133" y="447"/>
      <point x="74" y="388"/>
      <point x="74" y="317" type="curve" smooth="yes"/>
      <point x="74" y="261"/>
      <point x="118" y="217"/>
    </contour>
  </outline>
</glyph>
<glyph name="fraction" format="2">
  <advance width="566"/>
  <unicode hex="2044"/>
  <outline>
    <contour>
      <point x="68" y="0" type="line"/>
      <point x="606" y="700" type="line"/>
      <point x="508" y="700" type="line"/>
      <point x="-29" y="0" type="line"/>
    </contour>
  </outline>
</glyph>
<glyph name="uni2082" format="2">
  <advance width="301"/>
  <unicode hex="2082"/>
  <outline>
    <contour>
      <point x="-29" y="0" type="line"/>
      <point x="228" y="0" type="line"/>
      <point x="242" y="70" type="line"/>
      <point x="109" y="70" type="line"/>
      <point x="199" y="135" type="line" smooth="yes"/>
      <point x="253" y="175"/>
      <point x="278" y="213"/>
      <point x="278" y="258" type="curve" smooth="yes"/>
      <point x="278" y="316"/>
      <point x="228" y="355"/>
      <point x="155" y="355" type="curve" smooth="yes"/>
      <point x="110" y="355"/>
      <point x="62" y="337"/>
      <point x="18" y="305" type="curve"/>
      <point x="52" y="245" type="line"/>
      <point x="87" y="272"/>
      <point x="114" y="283"/>
      <point x="141" y="283" type="curve" smooth="yes"/>
      <point x="174" y="283"/>
      <point x="194" y="267"/>
      <point x="194" y="243" type="curve" smooth="yes"/>
      <point x="194" y="222"/>
      <point x="179" y="201"/>
      <point x="146" y="178" type="curve" smooth="yes"/>
      <point x="-16" y="58" type="line"/>
    </contour>
  </outline>
</glyph>
<glyph name="uni2087" format="2">
  <advance width="314"/>
  <unicode hex="2087"/>
  <outline>
    <contour>
      <point x="2" y="0" type="line"/>
      <point x="107" y="0" type="line"/>
      <point x="309" y="288" type="line"/>
      <point x="322" y="350" type="line"/>
      <point x="38" y="350" type="line"/>
      <point x="22" y="277" type="line"/>
      <point x="208" y="277" type="line"/>
    </contour>
  </outline>
</glyph>
<glyph name="uni2088" format="2">
  <advance width="330"/>
  <unicode hex="2088"/>
  <outline>
    <contour>
      <point x="123" y="-6" type="curve" smooth="yes"/>
      <point x="206" y="-6"/>
      <point x="273" y="45"/>
      <point x="273" y="108" type="curve" smooth="yes"/>
      <point x="273" y="136"/>
      <point x="259" y="159"/>
      <point x="236" y="173" type="curve"/>
      <point x="271" y="191"/>
      <point x="296" y="226"/>
      <point x="296" y="263" type="curve" smooth="yes"/>
      <point x="296" y="317"/>
      <point x="245" y="355"/>
      <point x="174" y="355" type="curve" smooth="yes"/>
      <point x="96" y="355"/>
      <point x="31" y="305"/>
      <point x="31" y="243" type="curve" smooth="yes"/>
      <point x="31" y="219"/>
      <point x="42" y="199"/>
      <point x="60" y="184" type="curve"/>
      <point x="17" y="167"/>
      <point x="-12" y="131"/>
      <point x="-12" y="89" type="curve" smooth="yes"/>
      <point x="-12" y="32"/>
      <point x="42" y="-6"/>
    </contour>
    <contour>
      <point x="159" y="208" type="curve" smooth="yes"/>
      <point x="132" y="208"/>
      <point x="112" y="222"/>
      <point x="112" y="243" type="curve" smooth="yes"/>
      <point x="112" y="267"/>
      <point x="137" y="287"/>
      <point x="166" y="287" type="curve" smooth="yes"/>
      <point x="193" y="287"/>
      <point x="213" y="272"/>
      <point x="213" y="252" type="curve" smooth="yes"/>
      <point x="213" y="228"/>
      <point x="187" y="208"/>
    </contour>
    <contour>
      <point x="129" y="64" type="curve" smooth="yes"/>
      <point x="95" y="64"/>
      <point x="73" y="79"/>
      <point x="73" y="102" type="curve" smooth="yes"/>
      <point x="73" y="126"/>
      <point x="101" y="146"/>
      <point x="134" y="146" type="curve" smooth="yes"/>
      <point x="167" y="146"/>
      <point x="190" y="131"/>
      <point x="190" y="108" type="curve" smooth="yes"/>
      <point x="190" y="83"/>
      <point x="164" y="64"/>
    </contour>
  </outline>
</glyph>
<glyph name="Euro" format="2">
  <advance width="774"/>
  <unicode hex="20AC"/>
  <outline>
    <contour>
      <point x="469" y="319" type="line"/>
      <point x="247" y="319" type="line"/>
      <point x="248" y="340"/>
      <point x="252" y="361"/>
      <point x="257" y="381" type="curve"/>
      <point x="503" y="381" type="line"/>
      <point x="545" y="452" type="line"/>
      <point x="284" y="452" type="line"/>
      <point x="330" y="541"/>
      <point x="416" y="599"/>
      <point x="515" y="599" type="curve" smooth="yes"/>
      <point x="597" y="599"/>
      <point x="667" y="561"/>
      <point x="699" y="500" type="curve"/>
      <point x="801" y="564" type="line"/>
      <point x="756" y="659"/>
      <point x="659" y="711"/>
      <point x="528" y="711" type="curve" smooth="yes"/>
      <point x="356" y="711"/>
      <point x="212" y="606"/>
      <point x="151" y="452" type="curve"/>
      <point x="75" y="452" type="line"/>
      <point x="60" y="381" type="line"/>
      <point x="130" y="381" type="line"/>
      <point x="126" y="361"/>
      <point x="123" y="340"/>
      <point x="122" y="319" type="curve"/>
      <point x="47" y="319" type="line"/>
      <point x="32" y="249" type="line"/>
      <point x="123" y="249" type="line"/>
      <point x="140" y="92"/>
      <point x="258" y="-10"/>
      <point x="431" y="-10" type="curve" smooth="yes"/>
      <point x="538" y="-10"/>
      <point x="633" y="29"/>
      <point x="707" y="102" type="curve"/>
      <point x="631" y="176" type="line"/>
      <point x="585" y="129"/>
      <point x="516" y="102"/>
      <point x="444" y="102" type="curve" smooth="yes"/>
      <point x="340" y="102"/>
      <point x="268" y="158"/>
      <point x="250" y="249" type="curve"/>
      <point x="427" y="249" type="line"/>
    </contour>
  </outline>
</glyph>
<glyph name="notequal" format="2">
  <advance width="539"/>
  <unicode hex="2260"/>
  <outline>
    <contour>
      <point x="6" y="103" type="line"/>
      <point x="122" y="103" type="line"/>
      <point x="213" y="205" type="line"/>
      <point x="482" y="205" type="line"/>
      <point x="504" y="311" type="line"/>
      <point x="308" y="311" type="line"/>
      <point x="384" y="396" type="line"/>
      <point x="523" y="396" type="line"/>
      <point x="545" y="502" type="line"/>
      <point x="479" y="502" type="line"/>
      <point x="569" y="602" type="line"/>
      <point x="453" y="602" type="line"/>
      <point x="363" y="502" type="line"/>
      <point x="97" y="502" type="line"/>
      <point x="74" y="396" type="line"/>
      <point x="268" y="396" type="line"/>
      <point x="192" y="311" type="line"/>
      <point x="56" y="311" type="line"/>
      <point x="33" y="205" type="line"/>
      <point x="97" y="205" type="line"/>
    </contour>
  </outline>
</glyph>
<glyph name="cordinal" format="2">
  <advance width="410"/>
  <outline>
    <contour>
      <point x="279" y="396" type="curve" smooth="yes"/>
      <point x="224" y="396"/>
      <point x="186" y="437"/>
      <point x="186" y="493" type="curve" smooth="yes"/>
      <point x="186" y="560"/>
      <point x="236" y="616"/>
      <point x="295" y="616" type="curve" smooth="yes"/>
      <point x="333" y="616"/>
      <point x="363" y="599"/>
      <point x="387" y="564" type="curve"/>
      <point x="459" y="629" type="line"/>
      <point x="425" y="680"/>
      <point x="364" y="710"/>
      <point x="298" y="710" type="curve" smooth="yes"/>
      <point x="178" y="710"/>
      <point x="81" y="611"/>
      <point x="81" y="487" type="curve" smooth="yes"/>
      <point x="81" y="381"/>
      <point x="160" y="302"/>
      <point x="268" y="302" type="curve" smooth="yes"/>
      <point x="324" y="302"/>
      <point x="378" y="324"/>
      <point x="422" y="364" type="curve"/>
      <point x="367" y="435" type="line"/>
      <point x="340" y="409"/>
      <point x="312" y="396"/>
    </contour>
  </outline>
</glyph>
<glyph name="g.alt" format="2">
  <advance width="588"/>
  <note>
Version created Sun Jan 13 16:53:00 2019
</note>
  <anchor x="321" y="521" name="top"/>
  <outline>
    <contour>
      <point x="67" y="318" type="curve" smooth="yes"/>
      <point x="67" y="263"/>
      <point x="95" y="216"/>
      <point x="140" y="184" type="curve"/>
      <point x="81" y="166"/>
      <point x="42" y="124"/>
      <point x="42" y="70" type="curve" smooth="yes"/>
      <point x="42" y="49"/>
      <point x="49" y="31"/>
      <point x="63" y="17" type="curve"/>
      <point x="-8" y="0"/>
      <point x="-53" y="-41"/>
      <point x="-53" y="-94" type="curve" smooth="yes"/>
      <point x="-53" y="-169"/>
      <point x="56" y="-215"/>
      <point x="229" y="-215" type="curve" smooth="yes"/>
      <point x="402" y="-215"/>
      <point x="517" y="-146"/>
      <point x="517" y="-41" type="curve" smooth="yes"/>
      <point x="517" y="19"/>
      <point x="469" y="59"/>
      <point x="383" y="68" type="curve" smooth="yes"/>
      <point x="214" y="84" type="line" smooth="yes"/>
      <point x="182" y="88"/>
      <point x="165" y="99"/>
      <point x="165" y="115" type="curve" smooth="yes"/>
      <point x="165" y="134"/>
      <point x="181" y="147"/>
      <point x="208" y="153" type="curve"/>
      <point x="231" y="146"/>
      <point x="256" y="143"/>
      <point x="283" y="143" type="curve" smooth="yes"/>
      <point x="420" y="143"/>
      <point x="528" y="235"/>
      <point x="528" y="351" type="curve" smooth="yes"/>
      <point x="528" y="379"/>
      <point x="521" y="405"/>
      <point x="509" y="428" type="curve"/>
      <point x="529" y="435"/>
      <point x="550" y="438"/>
      <point x="573" y="438" type="curve" smooth="yes"/>
      <point x="592" y="438"/>
      <point x="610" y="437"/>
      <point x="622" y="433" type="curve"/>
      <point x="642" y="535" type="line"/>
      <point x="631" y="540"/>
      <point x="619" y="542"/>
      <point x="603" y="542" type="curve" smooth="yes"/>
      <point x="556" y="542"/>
      <point x="511" y="518"/>
      <point x="473" y="474" type="curve"/>
      <point x="434" y="509"/>
      <point x="378" y="530"/>
      <point x="313" y="530" type="curve" smooth="yes"/>
      <point x="177" y="530"/>
      <point x="67" y="434"/>
    </contour>
    <contour>
      <point x="403" y="344" type="curve" smooth="yes"/>
      <point x="403" y="288"/>
      <point x="349" y="240"/>
      <point x="288" y="240" type="curve" smooth="yes"/>
      <point x="232" y="240"/>
      <point x="192" y="276"/>
      <point x="192" y="324" type="curve" smooth="yes"/>
      <point x="192" y="382"/>
      <point x="244" y="429"/>
      <point x="308" y="429" type="curve" smooth="yes"/>
      <point x="362" y="429"/>
      <point x="403" y="392"/>
    </contour>
    <contour>
      <point x="71" y="-73" type="curve" smooth="yes"/>
      <point x="71" y="-48"/>
      <point x="97" y="-28"/>
      <point x="136" y="-22" type="curve"/>
      <point x="152" y="-27"/>
      <point x="171" y="-30"/>
      <point x="191" y="-32" type="curve" smooth="yes"/>
      <point x="339" y="-46" type="line" smooth="yes"/>
      <point x="363" y="-49"/>
      <point x="377" y="-60"/>
      <point x="377" y="-74" type="curve" smooth="yes"/>
      <point x="377" y="-108"/>
      <point x="322" y="-131"/>
      <point x="238" y="-131" type="curve" smooth="yes"/>
      <point x="133" y="-131"/>
      <point x="71" y="-109"/>
    </contour>
  </outline>
</glyph>
<glyph name="reversequotedblleft" format="2">
  <advance width="431"/>
  <outline>
    <contour>
      <point x="216" y="741" type="line"/>
      <point x="74" y="741" type="line"/>
      <point x="143" y="478" type="line"/>
      <point x="246" y="478" type="line"/>
    </contour>
    <contour>
      <point x="408" y="741" type="line"/>
      <point x="266" y="741" type="line"/>
      <point x="334" y="478" type="line"/>
      <point x="437" y="478" type="line"/>
    </contour>
  </outline>
</glyph>
